<?xml version="1.0" encoding="UTF-8" standalone="no"?>
<!DOCTYPE svg PUBLIC "-//W3C//DTD SVG 1.1//EN" "http://www.w3.org/Graphics/SVG/1.1/DTD/svg11.dtd">
<svg xmlns="http://www.w3.org/2000/svg" version="1.1" viewBox="0.00 0.00 632.00 632.00">
<g stroke-width="2.00" fill="none" stroke-linecap="butt">
<path stroke="#8a9fb3" vector-effect="non-scaling-stroke" d="
  M 409.83 59.43
  C 413.37 66.13 414.62 71.23 414.76 79.44
  Q 414.89 86.70 415.64 93.72"
/>
<path stroke="#153b62" vector-effect="non-scaling-stroke" d="
  M 429.09 100.65
  Q 429.32 101.18 429.79 101.57
  A 0.63 0.63 0.0 0 1 429.60 102.64
  L 428.57 103.02
  Q 428.34 103.11 428.38 103.36
  Q 428.43 103.62 428.62 103.80
  Q 429.25 104.39 428.49 104.79
  L 427.19 105.46
  A 1.12 1.12 0.0 0 0 427.84 107.57
  Q 428.81 107.46 429.68 108.09
  A 0.59 0.58 55.6 0 1 429.49 109.13
  Q 425.51 110.16 421.90 108.60
  Q 421.14 108.27 420.32 108.12
  C 418.21 107.73 416.08 106.10 413.79 105.50
  A 1.33 1.33 0.0 0 0 412.95 105.56
  Q 411.35 106.21 410.64 104.75
  Q 410.41 104.28 409.90 104.21
  Q 407.28 103.83 405.10 102.18
  Q 404.96 102.07 405.01 101.90
  L 405.10 101.62
  Q 405.14 101.49 404.49 101.21
  Q 403.24 100.65 402.23 101.57
  Q 401.84 101.92 401.35 101.74
  Q 398.00 100.52 394.54 101.41
  Q 394.24 101.49 394.13 101.20
  L 393.87 100.44
  A 0.24 0.22 -87.4 0 0 393.77 100.32
  Q 393.02 99.86 391.69 99.41
  A 0.51 0.51 0.0 0 0 391.04 99.77
  L 390.81 100.75
  A 0.39 0.39 0.0 0 1 390.05 100.62
  Q 390.57 95.29 389.64 89.77
  A 0.13 0.13 0.0 0 0 389.39 89.80
  Q 389.41 90.13 389.43 90.49
  Q 389.60 93.56 388.26 95.85"
/>
<path stroke="#8a9fb3" vector-effect="non-scaling-stroke" d="
  M 388.26 95.85
  Q 388.21 88.47 388.20 81.25
  C 388.20 65.63 366.96 60.22 360.75 75.42
  Q 359.64 78.14 359.63 84.71
  Q 359.58 127.50 359.61 170.31"
/>
<path stroke="#113356" vector-effect="non-scaling-stroke" d="
  M 359.61 170.31
  L 359.23 162.58
  Q 359.21 162.19 359.03 162.54
  C 358.43 163.65 359.43 164.83 358.37 165.95
  Q 357.89 166.46 357.88 165.75
  L 357.88 165.10
  Q 357.88 164.91 357.69 164.97
  Q 357.57 165.01 357.43 165.11
  Q 357.10 165.34 356.99 164.95
  Q 356.73 164.04 355.85 164.11
  Q 355.28 164.16 354.90 163.74
  L 353.27 161.96
  Q 353.01 161.67 352.61 161.66
  Q 349.51 161.62 346.88 159.88
  Q 346.51 159.64 346.07 159.61
  L 342.45 159.36
  Q 341.99 159.33 341.68 159.66
  Q 340.63 160.77 339.72 160.01
  Q 339.18 159.56 338.83 160.18
  Q 337.57 162.46 335.46 161.18
  Q 334.87 160.83 334.87 161.52
  L 334.86 162.74
  A 0.21 0.21 0.0 0 1 334.44 162.75
  L 333.37 132.12
  Q 333.37 132.10 333.49 132.12
  Q 333.58 132.14 333.40 132.12
  Q 333.33 132.12 333.35 132.19
  Q 333.55 133.04 333.27 133.84
  Q 332.98 134.67 332.94 133.79
  Q 332.86 132.14 332.20 130.77"
/>
<path stroke="#8a9fb3" vector-effect="non-scaling-stroke" d="
  M 332.20 130.77
  Q 331.96 110.16 331.95 89.53
  C 331.94 81.11 332.39 75.31 326.96 70.30
  C 320.31 64.15 308.71 64.76 305.00 73.94
  Q 303.67 77.24 303.71 84.72
  Q 304.07 146.64 303.65 208.55"
/>
<path stroke="#113356" vector-effect="non-scaling-stroke" d="
  M 303.65 208.55
  L 303.00 177.57
  Q 302.99 177.03 302.54 176.72
  Q 300.74 175.54 301.63 173.67
  Q 301.90 173.09 301.40 172.70
  Q 297.48 169.64 294.40 165.73
  Q 293.58 164.69 292.26 163.85
  Q 291.02 163.06 289.97 162.06
  Q 288.97 161.11 287.82 160.61
  C 285.21 159.48 284.29 157.20 281.27 157.29
  Q 280.86 157.30 280.56 157.03
  L 278.93 155.55
  Q 278.61 155.26 278.29 155.56
  L 277.03 156.74
  Q 276.47 157.26 276.41 156.49
  Q 276.31 155.20 276.39 153.89
  Q 276.39 153.87 276.38 153.87
  Q 276.38 153.87 276.37 153.87
  Q 276.33 153.87 276.33 153.90
  L 275.99 157.95"
/>
<path stroke="#0c9eaf" vector-effect="non-scaling-stroke" d="
  M 275.99 157.95
  L 275.84 106.27
  A 0.57 0.57 0.0 0 0 275.12 105.73
  C 262.07 109.44 248.67 113.42 236.84 118.66
  C 220.79 125.78 207.08 134.75 193.11 144.95
  C 176.72 156.90 162.30 172.35 150.17 188.63"
/>
<path stroke="#153b62" vector-effect="non-scaling-stroke" d="
  M 150.17 188.63
  L 150.27 187.50
  A 0.35 0.35 0.0 0 0 149.64 187.27
  Q 149.13 188.01 148.54 188.61
  Q 148.04 189.13 147.26 189.59
  Q 145.15 190.81 143.41 192.47
  Q 143.11 192.76 142.75 192.54
  Q 139.63 190.67 136.70 193.14
  Q 136.49 193.31 136.64 193.54
  L 136.86 193.88
  A 0.38 0.19 15.2 0 1 136.29 194.00
  Q 135.97 193.81 135.55 194.08
  Q 130.08 197.67 125.07 201.95
  A 0.84 0.83 -55.4 0 1 124.27 202.10
  Q 121.27 201.07 119.88 203.52
  Q 118.67 205.65 116.99 206.35
  Q 116.56 206.53 116.37 206.11
  L 115.18 203.53
  A 0.66 0.66 0.0 0 0 114.04 203.43
  L 112.06 206.20
  A 0.43 0.43 0.0 0 1 111.71 206.38
  L 111.36 206.38
  A 0.31 0.31 0.0 0 1 111.07 205.96
  Q 111.62 204.55 110.65 204.35"
/>
<path stroke="#8592a1" vector-effect="non-scaling-stroke" d="
  M 332.20 130.77
  L 332.01 197.74"
/>
<path stroke="#deeaf0" vector-effect="non-scaling-stroke" d="
  M 332.01 197.74
  Q 324.83 205.19 319.91 212.39
  Q 313.15 222.29 310.24 234.15
  Q 308.98 239.27 308.89 247.19
  Q 308.55 278.29 307.68 309.37
  Q 307.63 311.09 306.75 310.47"
/>
<path stroke="#8592a1" vector-effect="non-scaling-stroke" d="
  M 306.75 310.47
  Q 306.25 303.28 304.77 296.25
  Q 303.84 291.86 303.84 288.16
  Q 303.78 248.34 303.65 208.55"
/>
<path stroke="#02b8d8" vector-effect="non-scaling-stroke" d="
  M 232.28 246.15
  Q 234.91 245.53 236.59 244.21
  Q 236.95 243.92 237.42 243.96
  L 239.99 244.16
  Q 240.43 244.19 240.45 243.76
  C 240.59 241.23 242.04 240.89 243.36 239.43
  Q 251.36 230.66 256.67 220.03
  Q 257.15 219.07 257.33 217.36
  Q 257.49 215.93 258.10 214.64
  Q 259.64 211.38 259.77 210.94
  Q 262.95 200.32 264.06 194.49
  Q 265.60 186.47 265.08 174.97"
/>
<path stroke="#657d93" vector-effect="non-scaling-stroke" d="
  M 306.75 310.47
  Q 306.97 320.76 304.72 331.08"
/>
<path stroke="#21405f" vector-effect="non-scaling-stroke" d="
  M 304.72 331.08
  Q 300.82 348.78 286.36 362.85
  Q 261.34 387.17 226.43 386.51"
/>
<path stroke="#557089" vector-effect="non-scaling-stroke" d="
  M 226.43 386.51
  L 211.73 386.51"
/>
<path stroke="#8592a1" vector-effect="non-scaling-stroke" d="
  M 211.73 386.51
  C 175.91 384.15 141.16 376.32 109.72 358.76
  Q 108.58 358.12 109.52 359.03
  Q 111.35 360.81 111.57 361.83"
/>
<path stroke="#113356" vector-effect="non-scaling-stroke" d="
  M 111.57 361.83
  Q 113.78 370.77 117.95 378.68"
/>
<path stroke="#081f3b" vector-effect="non-scaling-stroke" d="
  M 117.95 378.68
  Q 114.52 379.45 117.20 381.56
  Q 117.29 381.63 117.17 381.62
  Q 117.04 381.60 116.90 381.66
  Q 116.68 381.75 116.78 381.96
  L 117.49 383.54
  Q 117.62 383.81 117.32 383.81
  L 117.05 383.81
  Q 116.77 383.81 116.69 384.09
  L 116.44 384.99
  Q 116.33 385.39 116.04 385.09
  Q 112.59 381.53 108.24 384.12
  Q 107.55 384.53 106.91 384.33
  Q 106.49 384.19 106.08 384.36
  Q 102.87 385.68 100.00 384.65
  Q 97.14 383.62 94.81 384.07
  Q 94.78 384.08 94.75 384.10
  Q 94.67 384.20 94.62 384.34
  Q 94.56 384.55 94.46 384.36
  Q 93.82 383.09 92.33 383.72"
/>
<path stroke="#0f2e50" vector-effect="non-scaling-stroke" d="
  M 87.81 264.25
  Q 89.07 263.59 89.49 264.19
  Q 89.61 264.35 89.75 264.21
  L 90.95 263.06
  A 0.73 0.72 -45.3 0 1 91.95 263.05
  L 93.02 264.05
  Q 93.49 264.49 94.04 264.18
  Q 95.38 263.42 96.72 263.89
  A 0.84 0.83 -58.4 0 0 97.62 263.67
  Q 98.49 262.75 99.25 263.52
  A 0.92 0.91 54.5 0 0 100.29 263.70
  Q 101.56 263.09 102.73 263.71
  Q 103.25 263.97 103.70 263.62
  L 108.45 259.88
  Q 108.85 259.57 109.36 259.55
  Q 110.20 259.51 110.02 258.45
  A 0.27 0.26 -65.0 0 1 110.51 258.27
  Q 110.64 258.50 110.76 258.25
  Q 111.35 257.05 111.36 258.50
  L 111.36 259.02
  A 0.18 0.18 0.0 0 0 111.69 259.13
  Q 113.46 256.78 115.28 257.61"
/>
<path stroke="#065c82" vector-effect="non-scaling-stroke" d="
  M 115.28 257.61
  Q 111.30 272.96 108.72 290.75
  Q 108.40 292.91 109.27 294.22"
/>
<path stroke="#073f66" vector-effect="non-scaling-stroke" d="
  M 109.27 294.22
  Q 108.20 294.90 108.15 296.25
  Q 107.71 309.22 107.08 321.68
  A 2.26 2.25 17.4 0 0 108.13 323.69
  Q 142.34 345.19 182.45 350.67
  Q 183.16 350.77 182.79 350.16
  Q 175.31 337.81 173.00 323.99"
/>
<path stroke="#065c82" vector-effect="non-scaling-stroke" d="
  M 173.00 323.99
  Q 170.54 305.73 176.85 289.60
  Q 178.22 286.10 183.20 276.99"
/>
<path stroke="#077794" vector-effect="non-scaling-stroke" d="
  M 183.20 276.99
  Q 200.63 251.78 232.28 246.15"
/>
<path stroke="#066689" vector-effect="non-scaling-stroke" d="
  M 232.28 246.15
  Q 255.13 243.88 275.03 256.03
  Q 275.72 256.45 275.72 255.65
  L 275.99 157.95"
/>
<path stroke="#01d1e1" vector-effect="non-scaling-stroke" d="
  M 275.99 157.95
  L 275.66 164.51
  Q 275.64 165.01 275.31 165.39
  Q 270.44 171.02 265.08 174.97"
/>
<path stroke="#02e2ec" vector-effect="non-scaling-stroke" d="
  M 265.08 174.97
  Q 251.76 184.15 243.94 187.19
  Q 232.82 191.51 221.56 195.44
  Q 219.57 196.13 217.56 196.73
  Q 190.03 204.99 162.03 198.82
  Q 161.93 198.80 157.92 198.18
  Q 154.81 197.70 152.13 195.90
  Q 151.73 195.63 151.24 195.63
  Q 148.09 195.68 145.57 194.23"
/>
<path stroke="#0a99a8" vector-effect="non-scaling-stroke" d="
  M 145.57 194.23
  L 150.17 188.63"
/>
<path stroke="#899aad" vector-effect="non-scaling-stroke" d="
  M 515.28 176.17
  C 516.08 178.59 517.49 183.02 513.75 182.91
  Q 488.96 182.21 468.36 189.46"
/>
<path stroke="#0f2e50" vector-effect="non-scaling-stroke" d="
  M 468.36 189.46
  Q 468.28 186.01 462.83 188.71
  Q 462.38 188.93 462.10 188.52
  Q 460.80 186.60 458.21 187.05
  A 1.28 1.27 51.9 0 1 457.42 186.95
  C 454.14 185.42 451.57 186.68 448.48 186.39
  Q 439.58 185.56 431.27 189.09
  Q 430.83 189.28 430.36 189.23
  Q 427.76 188.98 425.65 190.57
  Q 425.28 190.85 424.80 190.82
  Q 421.99 190.66 420.21 192.63
  Q 419.14 193.83 418.40 194.13
  Q 417.20 194.62 415.92 194.71
  Q 415.86 194.72 415.86 194.78
  L 415.86 195.24
  Q 415.85 195.44 415.66 195.46
  Q 413.45 195.78 412.01 197.47
  A 1.31 1.30 14.3 0 1 411.28 197.90
  Q 404.91 199.25 400.61 203.67
  Q 398.94 205.38 396.94 206.83
  Q 394.92 208.30 393.31 210.23
  Q 393.06 210.52 392.69 210.60
  Q 391.96 210.75 392.05 211.78
  Q 392.14 212.77 391.10 213.21
  Q 390.65 213.40 390.65 212.91
  Q 390.60 209.54 389.96 207.88
  Q 389.44 206.53 389.89 205.43
  Q 389.99 205.18 389.77 205.02
  L 389.54 204.85
  Q 389.06 204.50 389.06 205.10
  Q 389.08 206.62 388.88 208.13
  C 388.60 210.39 389.23 212.38 388.77 214.67
  C 388.20 217.55 388.35 219.59 388.09 222.22"
/>
<path stroke="#69869e" vector-effect="non-scaling-stroke" d="
  M 388.09 222.22
  L 387.84 199.67"
/>
<path stroke="#081f3b" vector-effect="non-scaling-stroke" d="
  M 328.35 408.37
  Q 326.87 407.28 326.04 409.77
  Q 325.85 410.35 325.24 410.41
  L 322.15 410.73
  Q 321.63 410.78 321.89 410.33
  L 323.10 408.29
  A 0.63 0.62 -65.7 0 0 322.76 407.37
  L 319.73 406.40
  Q 319.32 406.27 319.12 405.89
  Q 318.26 404.29 316.61 403.74
  Q 316.13 403.58 316.16 403.08
  Q 316.31 400.33 313.61 399.15
  Q 312.88 398.83 312.84 397.90
  Q 312.81 397.37 312.28 397.25
  Q 309.96 396.76 308.70 394.74
  Q 308.07 393.74 308.45 392.89
  Q 308.92 391.84 308.94 391.77
  Q 309.50 389.29 309.61 386.56"
/>
<path stroke="#657d93" vector-effect="non-scaling-stroke" d="
  M 309.61 386.56
  Q 329.37 364.00 331.62 334.50
  Q 331.87 331.27 331.92 314.50
  Q 332.10 256.17 332.01 197.74"
/>
<path stroke="#899aad" vector-effect="non-scaling-stroke" d="
  M 388.26 95.85
  L 387.84 199.67"
/>
<path stroke="#deeaf0" vector-effect="non-scaling-stroke" d="
  M 387.84 199.67
  Q 375.26 213.23 369.06 230.11
  Q 365.33 240.28 365.20 250.25
  Q 364.85 277.89 364.88 327.25
  Q 364.89 337.06 363.33 347.17"
/>
<path stroke="#cfdde6" vector-effect="non-scaling-stroke" d="
  M 363.33 347.17
  Q 357.40 382.14 334.80 409.47
  C 330.81 414.28 325.69 419.18 320.97 423.98"
/>
<path stroke="#bccdd9" vector-effect="non-scaling-stroke" d="
  M 320.97 423.98
  Q 295.02 445.36 261.46 452.84"
/>
<path stroke="#afc0cf" vector-effect="non-scaling-stroke" d="
  M 261.46 452.84
  Q 226.83 460.31 191.75 454.03
  C 178.25 451.61 165.99 446.53 153.49 440.89"
/>
<path stroke="#828c98" vector-effect="non-scaling-stroke" d="
  M 153.49 440.89
  L 150.13 437.72
  Q 149.64 437.26 150.27 437.50
  Q 187.00 451.24 226.00 451.28
  C 242.67 451.30 258.44 448.28 274.26 443.19
  Q 305.94 433.00 328.35 408.37"
/>
<path stroke="#8592a1" vector-effect="non-scaling-stroke" d="
  M 328.35 408.37
  Q 335.17 401.45 341.14 391.66
  Q 359.55 361.48 359.67 326.50
  Q 359.95 248.38 359.61 170.31"
/>
<path stroke="#0a658e" vector-effect="non-scaling-stroke" d="
  M 116.87 253.57
  L 115.28 257.61"
/>
<path stroke="#627789" vector-effect="non-scaling-stroke" d="
  M 309.61 386.56
  L 298.94 396.75"
/>
<path stroke="#9cb9ca" vector-effect="non-scaling-stroke" d="
  M 298.94 396.75
  Q 301.26 392.69 301.42 389.15
  Q 301.44 388.66 301.80 388.33
  Q 304.78 385.68 304.82 381.49
  Q 304.92 372.29 304.70 363.03"
/>
<path stroke="#8facc0" vector-effect="non-scaling-stroke" d="
  M 304.70 363.03
  L 304.73 351.30"
/>
<path stroke="#7a98ae" vector-effect="non-scaling-stroke" d="
  M 304.73 351.30
  L 304.72 331.08"
/>
<path stroke="#02aed2" vector-effect="non-scaling-stroke" d="
  M 183.20 276.99
  Q 145.59 279.08 117.39 255.38
  Q 116.98 255.04 116.94 254.52
  L 116.87 253.57"
/>
<path stroke="#0b809f" vector-effect="non-scaling-stroke" d="
  M 116.87 253.57
  Q 126.17 221.08 145.57 194.23"
/>
<path stroke="#cfdde6" vector-effect="non-scaling-stroke" d="
  M 211.73 386.51
  Q 212.01 387.22 211.76 387.64
  Q 211.56 387.97 210.88 387.99
  C 203.18 388.18 195.06 388.86 187.70 388.12
  Q 151.60 384.46 120.54 368.12
  Q 116.91 366.21 115.64 365.90"
/>
<path stroke="#8a9fb3" vector-effect="non-scaling-stroke" d="
  M 115.64 365.90
  Q 114.18 363.61 111.57 361.83"
/>
<path stroke="#5b7e9b" vector-effect="non-scaling-stroke" d="
  M 115.64 365.90
  Q 132.52 393.98 161.03 410.74"
/>
<path stroke="#405b72" vector-effect="non-scaling-stroke" d="
  M 464.96 355.50
  Q 449.21 363.84 435.05 374.24"
/>
<path stroke="#1e3a56" vector-effect="non-scaling-stroke" d="
  M 435.05 374.24
  Q 431.88 375.40 429.75 377.11
  Q 421.67 383.59 414.87 388.13
  Q 410.82 390.82 406.89 395.45"
/>
<path stroke="#0e2d4d" vector-effect="non-scaling-stroke" d="
  M 406.89 395.45
  Q 406.92 400.40 405.42 402.13
  Q 404.38 403.33 404.35 403.38
  C 402.49 406.42 401.31 409.97 399.63 412.76
  Q 392.26 425.03 383.96 436.68
  C 382.23 439.12 381.85 441.34 381.88 444.17
  A 0.57 0.57 0.0 0 0 382.79 444.62
  L 406.97 426.71"
/>
<path stroke="#1e3a56" vector-effect="non-scaling-stroke" d="
  M 406.97 426.71
  L 434.83 407.89"
/>
<path stroke="#526a7f" vector-effect="non-scaling-stroke" d="
  M 434.83 407.89
  Q 450.59 397.21 466.20 389.38"
/>
<path stroke="#828c98" vector-effect="non-scaling-stroke" d="
  M 550.06 368.39
  C 552.66 374.25 551.89 379.34 549.90 385.04
  Q 537.11 421.56 515.13 453.13
  Q 509.68 460.95 502.88 468.93
  C 471.40 505.89 433.14 529.95 386.17 543.05
  C 336.02 557.04 283.18 555.32 234.25 536.56
  Q 229.95 534.91 225.53 533.63"
/>
<path stroke="#324e68" vector-effect="non-scaling-stroke" d="
  M 222.95 532.32
  L 213.76 528.29"
/>
<path stroke="#324e68" vector-effect="non-scaling-stroke" d="
  M 213.07 527.67
  L 204.23 523.38"
/>
<path stroke="#0c2846" vector-effect="non-scaling-stroke" d="
  M 194.73 517.82
  Q 192.38 515.20 189.22 514.31"
/>
<path stroke="#0e2d4d" vector-effect="non-scaling-stroke" d="
  M 117.95 378.68
  L 126.19 395.95
  Q 126.41 396.41 126.85 396.66
  Q 142.90 405.89 161.03 410.74"
/>
<path stroke="#526a7f" vector-effect="non-scaling-stroke" d="
  M 161.03 410.74
  Q 168.95 414.37 180.02 417.10
  C 208.34 424.07 235.56 425.77 263.19 416.68"
/>
<path stroke="#405b72" vector-effect="non-scaling-stroke" d="
  M 263.19 416.68
  Q 283.85 410.22 298.94 396.75"
/>
<path stroke="#324e68" vector-effect="non-scaling-stroke" d="
  M 153.49 440.89
  Q 156.36 446.62 161.81 449.70"
/>
<path stroke="#0c2846" vector-effect="non-scaling-stroke" d="
  M 161.81 449.70
  Q 171.10 463.61 184.41 473.34
  Q 187.00 475.23 192.01 476.86
  Q 205.90 481.38 217.68 481.80"
/>
<path stroke="#324e68" vector-effect="non-scaling-stroke" d="
  M 217.68 481.80
  Q 225.05 483.34 231.75 483.46
  Q 268.15 484.12 301.80 468.86"
/>
<path stroke="#405b72" vector-effect="non-scaling-stroke" d="
  M 301.80 468.86
  C 324.66 458.69 343.66 442.32 359.11 422.76"
/>
<path stroke="#4b6f8d" vector-effect="non-scaling-stroke" d="
  M 304.73 351.30
  Q 303.57 356.02 300.87 360.92
  C 299.01 364.29 295.44 366.67 292.89 369.80
  Q 292.13 370.73 289.73 373.04
  Q 288.25 374.46 286.83 376.59
  Q 284.37 380.26 279.87 382.31
  C 277.99 383.16 277.15 384.49 275.59 385.73
  C 273.56 387.35 272.30 389.71 269.69 390.94
  Q 269.23 391.15 268.96 391.59
  Q 265.35 397.52 260.30 402.22
  Q 259.27 403.17 257.41 405.65
  Q 255.66 408.00 253.47 408.20"
/>
<path stroke="#6b8ba4" vector-effect="non-scaling-stroke" d="
  M 253.47 408.20
  Q 239.71 398.38 226.43 386.51"
/>
<path stroke="#0276a4" vector-effect="non-scaling-stroke" d="
  M 173.00 323.99
  Q 144.56 320.82 121.71 305.07
  C 117.34 302.06 113.32 297.97 109.27 294.22"
/>
<path stroke="#afc8d7" vector-effect="non-scaling-stroke" d="
  M 387.99 340.25
  Q 386.79 341.45 385.74 342.26
  Q 384.70 343.07 383.05 343.48
  Q 379.20 344.46 375.31 345.40
  Q 374.06 345.70 370.65 345.90
  Q 368.14 346.05 365.81 347.08
  Q 365.20 347.35 364.94 346.73
  L 364.68 346.12
  Q 364.46 345.60 363.99 345.91
  Q 363.52 346.24 363.33 347.17"
/>
<path stroke="#deeaf0" vector-effect="non-scaling-stroke" d="
  M 465.96 192.67
  Q 464.42 192.15 464.97 190.76"
/>
<path stroke="#8592a1" vector-effect="non-scaling-stroke" d="
  M 464.97 190.76
  L 468.36 189.46"
/>
<path stroke="#657d93" vector-effect="non-scaling-stroke" d="
  M 464.97 190.76
  Q 449.62 196.55 435.51 204.47"
/>
<path stroke="#21405f" vector-effect="non-scaling-stroke" d="
  M 435.51 204.47
  Q 432.14 205.63 431.28 206.13
  Q 425.48 209.54 420.67 214.19
  C 418.66 216.13 414.61 217.67 414.60 220.75
  Q 414.59 236.16 414.91 252.37"
/>
<path stroke="#073f66" vector-effect="non-scaling-stroke" d="
  M 414.91 252.37
  L 414.96 280.97
  A 0.74 0.74 0.0 0 0 416.15 281.55
  Q 425.30 274.59 434.93 269.21"
/>
<path stroke="#07517b" vector-effect="non-scaling-stroke" d="
  M 434.93 269.21
  Q 457.01 255.91 483.75 246.50
  Q 499.56 240.94 514.78 238.63"
/>
<path stroke="#073f66" vector-effect="non-scaling-stroke" d="
  M 514.78 238.63
  L 525.30 237.34
  A 0.54 0.54 0.0 0 0 525.72 236.57
  Q 520.29 225.13 510.32 216.15"
/>
<path stroke="#657d93" vector-effect="non-scaling-stroke" d="
  M 543.29 228.46
  L 547.13 237.48"
/>
<path stroke="#8592a1" vector-effect="non-scaling-stroke" d="
  M 547.13 237.48
  C 551.09 246.68 558.97 263.93 546.18 268.28
  Q 543.48 269.20 536.25 269.08
  C 511.24 268.68 486.38 276.31 464.43 287.39"
/>
<path stroke="#557089" vector-effect="non-scaling-stroke" d="
  M 464.43 287.39
  Q 448.53 294.81 435.42 303.67
  Q 434.93 304.00 435.02 304.89"
/>
<path stroke="#21405f" vector-effect="non-scaling-stroke" d="
  M 435.02 304.89
  Q 433.46 304.78 432.16 305.68
  Q 423.77 311.43 417.25 316.72
  C 414.78 318.72 414.31 320.76 414.43 323.75
  Q 414.97 337.25 415.02 350.55
  A 0.76 0.76 0.0 0 0 416.21 351.17
  L 435.49 338.10"
/>
<path stroke="#557089" vector-effect="non-scaling-stroke" d="
  M 435.49 338.10
  Q 450.99 328.36 465.56 321.48"
/>
<path stroke="#8592a1" vector-effect="non-scaling-stroke" d="
  M 557.97 308.62
  Q 558.14 310.35 558.67 311.78
  C 561.49 319.26 559.30 326.48 552.53 329.85
  Q 549.89 331.16 544.72 331.51
  Q 503.48 334.32 467.01 354.26"
/>
<path stroke="#081f3b" vector-effect="non-scaling-stroke" d="
  M 467.01 354.26
  L 467.00 353.36
  Q 467.00 352.86 466.51 352.98
  L 464.24 353.52
  A 0.17 0.16 -20.1 0 0 464.13 353.75
  Q 464.19 353.86 464.25 353.97
  Q 464.43 354.31 464.06 354.41
  Q 462.72 354.80 461.94 355.78
  Q 461.31 356.58 460.99 356.75
  Q 460.33 357.10 459.73 356.97
  Q 459.28 356.86 458.87 357.09
  Q 457.20 358.04 455.39 358.41
  Q 454.90 358.52 454.52 358.83
  Q 451.35 361.46 447.59 363.22
  Q 447.32 363.35 447.01 363.36
  Q 446.77 363.37 446.53 363.49
  Q 446.38 363.56 446.38 363.74
  Q 446.38 363.87 446.38 364.00
  Q 446.37 364.12 446.28 364.06
  L 445.10 363.32
  A 0.31 0.30 16.5 0 0 444.63 363.57
  L 444.63 363.99
  Q 444.63 364.33 444.34 364.16
  Q 443.19 363.50 441.87 363.68
  C 440.91 363.82 440.44 364.72 439.09 364.34
  Q 438.64 364.21 438.28 363.92
  Q 437.72 363.48 437.09 363.18
  Q 436.76 363.03 436.50 362.76
  L 434.55 360.69
  Q 434.12 360.23 433.58 360.56
  Q 431.40 361.90 427.25 362.59
  Q 424.08 363.12 420.88 363.48
  A 0.78 0.76 -86.1 0 0 420.22 364.07
  L 420.14 364.37
  Q 420.02 364.85 419.52 364.85
  Q 416.09 364.87 413.86 367.57
  Q 413.33 368.21 412.84 368.98
  Q 412.56 369.40 412.06 369.39
  Q 410.01 369.38 407.03 370.38
  Q 404.45 371.25 401.00 370.11
  Q 400.55 369.96 400.14 370.22
  Q 397.26 372.02 395.23 371.97
  Q 392.86 371.92 392.54 373.81
  Q 392.46 374.33 391.93 374.40
  Q 389.29 374.76 387.96 376.86
  Q 387.71 377.25 387.27 377.37
  Q 386.33 377.61 385.89 376.86
  Q 385.63 376.40 385.39 376.87
  Q 385.00 377.62 385.56 378.15
  Q 386.25 378.83 385.41 378.34
  Q 384.89 378.03 384.66 377.11
  Q 384.19 375.23 383.30 374.10"
/>
<path stroke="#557089" vector-effect="non-scaling-stroke" d="
  M 383.30 374.10
  Q 387.84 358.14 387.99 340.25"
/>
<path stroke="#657d93" vector-effect="non-scaling-stroke" d="
  M 387.99 340.25
  L 388.09 222.22"
/>
<path stroke="#6d8fa9" vector-effect="non-scaling-stroke" d="
  M 301.80 468.86
  Q 301.73 468.51 301.52 468.25
  Q 301.20 467.86 300.72 468.01
  Q 297.37 469.11 294.78 467.36
  Q 293.60 466.57 294.18 465.24
  Q 294.33 464.89 293.97 464.78
  Q 292.10 464.20 290.48 465.25
  Q 290.09 465.50 289.66 465.33
  Q 280.46 461.80 277.55 459.89
  Q 274.81 458.10 273.14 457.43
  A 2.33 2.29 -11.7 0 1 272.38 456.94
  Q 271.39 456.01 270.27 455.34
  Q 270.12 455.26 269.08 454.53
  Q 268.08 453.83 267.12 454.29
  Q 266.46 454.59 265.99 454.03
  L 265.41 453.33
  A 0.63 0.62 59.0 0 0 264.71 453.15
  Q 263.18 453.76 261.46 452.84"
/>
<path stroke="#526a7f" vector-effect="non-scaling-stroke" d="
  M 383.30 374.10
  Q 375.32 400.82 359.11 422.76"
/>
<path stroke="#8dacc0" vector-effect="non-scaling-stroke" d="
  M 359.11 422.76
  Q 356.47 422.33 355.56 423.80
  Q 355.33 424.16 354.92 424.22
  L 347.73 425.26
  Q 347.62 425.28 347.62 425.26
  Q 347.61 425.21 347.60 425.17
  Q 347.54 425.01 347.32 425.03
  Q 344.35 425.32 341.37 425.39
  Q 341.24 425.39 336.19 425.86
  Q 333.68 426.10 331.22 425.51
  Q 328.90 424.96 327.20 425.18
  Q 324.69 425.49 322.17 425.74
  Q 321.99 425.76 321.86 425.69
  Q 321.72 425.60 321.61 425.49
  Q 321.25 425.14 321.75 425.06
  Q 322.20 425.00 322.56 424.67
  Q 323.00 424.28 322.42 424.20
  L 320.97 423.98"
/>
<path stroke="#395c7d" vector-effect="non-scaling-stroke" d="
  M 217.68 481.80
  Q 201.21 476.38 187.06 467.22
  Q 186.11 466.61 175.21 458.39
  Q 168.84 453.59 161.81 449.70"
/>
<path stroke="#6d8fa9" vector-effect="non-scaling-stroke" d="
  M 304.70 363.03
  L 303.68 372.84
  A 1.25 1.24 -21.0 0 1 303.35 373.57
  Q 301.71 375.34 301.79 377.80
  A 1.36 1.33 67.0 0 1 301.40 378.80
  Q 298.22 382.00 297.09 385.34
  Q 295.69 389.51 292.10 389.70
  Q 291.57 389.73 291.19 390.09
  Q 288.97 392.18 286.96 394.49
  C 286.19 395.37 285.99 396.68 285.01 397.36
  Q 283.36 398.51 283.31 398.56
  Q 279.17 402.61 274.80 406.47
  A 1.45 1.42 -17.9 0 0 274.32 407.39
  Q 274.13 409.41 272.35 410.28
  Q 271.73 410.59 271.25 411.09
  Q 268.99 413.43 265.72 414.06
  A 1.15 1.14 11.8 0 0 265.02 414.51
  Q 264.34 415.46 262.92 415.41"
/>
<path stroke="#7f9fb6" vector-effect="non-scaling-stroke" d="
  M 262.92 415.41
  L 253.47 408.20"
/>
<path stroke="#8dacc0" vector-effect="non-scaling-stroke" d="
  M 263.19 416.68
  Q 263.25 415.59 262.92 415.41"
/>
<path stroke="#bccdd9" vector-effect="non-scaling-stroke" d="
  M 465.68 358.49
  Q 464.80 357.34 464.96 355.50"
/>
<path stroke="#828c98" vector-effect="non-scaling-stroke" d="
  M 464.96 355.50
  L 467.01 354.26"
/>
<path stroke="#6b8ba4" vector-effect="non-scaling-stroke" d="
  M 434.83 407.89
  L 435.25 381.26"
/>
<path stroke="#8dacc0" vector-effect="non-scaling-stroke" d="
  M 465.74 361.89
  Q 464.91 363.01 465.01 364.26
  Q 465.47 370.38 464.90 376.33
  A 0.90 0.90 0.0 0 1 463.80 377.12
  C 459.42 376.10 457.89 378.58 454.75 379.57
  Q 451.28 380.67 447.63 380.84
  Q 446.26 380.90 444.97 381.38
  C 442.41 382.34 440.40 381.52 437.96 382.11
  Q 437.50 382.22 437.21 381.85
  Q 436.43 380.82 435.25 381.26"
/>
<path stroke="#587c97" vector-effect="non-scaling-stroke" d="
  M 435.25 381.26
  L 435.05 374.24"
/>
<path stroke="#264e71" vector-effect="non-scaling-stroke" d="
  M 406.97 426.71
  L 406.89 395.45"
/>
<path stroke="#60a9c9" vector-effect="non-scaling-stroke" d="
  M 465.39 224.64
  Q 450.77 230.12 436.01 238.73"
/>
<path stroke="#6097b5" vector-effect="non-scaling-stroke" d="
  M 436.01 238.73
  Q 435.63 238.87 435.42 238.77"
/>
<path stroke="#7a98ae" vector-effect="non-scaling-stroke" d="
  M 435.42 238.77
  Q 435.45 238.95 435.26 238.87
  Q 435.09 238.81 435.09 238.63
  L 435.51 204.47"
/>
<path stroke="#deeaf0" vector-effect="non-scaling-stroke" d="
  M 547.42 237.24
  Q 547.27 237.25 547.13 237.48"
/>
<path stroke="#cfdde6" vector-effect="non-scaling-stroke" d="
  M 465.68 289.69
  Q 464.57 289.05 464.43 287.39"
/>
<path stroke="#1c5a81" vector-effect="non-scaling-stroke" d="
  M 435.42 238.77
  L 414.91 252.37"
/>
<path stroke="#026b9d" vector-effect="non-scaling-stroke" d="
  M 514.78 238.63
  Q 510.86 229.09 504.59 222.15
  Q 502.62 219.96 498.36 217.06"
/>
<path stroke="#026b9d" vector-effect="non-scaling-stroke" d="
  M 434.93 269.21
  L 435.30 240.91
  Q 435.31 240.40 435.62 239.99
  Q 436.16 239.30 436.01 238.73"
/>
<path stroke="#6b8ba4" vector-effect="non-scaling-stroke" d="
  M 435.49 338.10
  L 435.02 304.89"
/>
<path stroke="#0a6f94" vector-effect="non-scaling-stroke" d="
  M 435.42 172.16
  L 464.92 159.45
  A 0.37 0.37 0.0 0 0 465.02 158.83
  Q 454.22 149.61 443.21 141.04
  Q 439.72 138.32 434.98 136.03"
/>
<path stroke="#0b5986" vector-effect="non-scaling-stroke" d="
  M 434.98 136.03
  L 416.14 124.74
  A 0.82 0.81 15.8 0 0 414.90 125.43
  L 414.75 182.18
  Q 414.75 182.97 415.45 182.60
  L 435.42 172.16"
/>
<path stroke="#0292bf" vector-effect="non-scaling-stroke" d="
  M 434.98 136.03
  Q 435.21 152.21 434.89 167.99
  Q 434.85 170.14 435.42 172.16"
/>
<path stroke="#355472" vector-effect="non-scaling-stroke" d="
  M 202.11 302.09
  C 197.24 316.82 199.61 332.78 211.11 343.48
  Q 217.29 349.23 224.57 351.98
  Q 248.82 361.14 267.60 343.15"
/>
<path stroke="#557089" vector-effect="non-scaling-stroke" d="
  M 267.60 343.15
  C 282.74 329.08 282.69 305.16 270.68 289.55"
/>
<path stroke="#8592a1" vector-effect="non-scaling-stroke" d="
  M 270.68 289.55
  C 252.00 263.48 210.05 270.44 202.11 302.09"
/>
<path stroke="#cfdde6" vector-effect="non-scaling-stroke" d="
  M 270.68 289.55
  Q 273.40 300.60 268.89 308.89
  Q 266.55 313.19 262.65 317.36"
/>
<path stroke="#afc0cf" vector-effect="non-scaling-stroke" d="
  M 262.65 317.36
  Q 246.82 331.16 227.05 327.70
  C 213.82 325.38 202.81 316.28 202.11 302.09"
/>
<path stroke="#7f9fb6" vector-effect="non-scaling-stroke" d="
  M 267.60 343.15
  Q 264.44 340.40 262.69 335.94
  C 261.34 332.51 258.95 330.75 258.27 326.81
  Q 258.19 326.35 257.81 326.07
  L 257.18 325.61
  A 0.37 0.37 0.0 0 1 257.42 324.95
  Q 260.46 325.12 259.96 322.82
  Q 259.86 322.32 260.18 321.93
  Q 261.97 319.73 262.65 317.36"
/>
<path stroke="#081f3b" vector-effect="non-scaling-stroke" d="
  M 435.47 444.58
  Q 401.04 468.35 366.44 491.99
  C 359.46 496.76 352.62 503.14 344.81 505.67
  Q 343.89 505.97 340.58 506.26
  Q 337.89 506.50 335.59 508.20
  A 1.25 1.22 -59.6 0 1 334.70 508.44
  C 331.98 508.11 329.12 507.94 326.87 506.34
  Q 323.40 503.88 321.21 500.05
  Q 320.97 499.62 321.33 499.29
  Q 322.73 497.99 323.40 495.91
  Q 325.04 490.90 330.12 489.58
  A 1.57 1.56 13.1 0 0 330.95 489.07
  C 332.73 486.98 335.13 486.69 336.79 484.37
  Q 338.27 482.30 339.25 481.56
  Q 342.50 479.09 345.88 476.45
  A 0.52 0.52 0.0 0 0 345.42 475.54
  Q 343.26 476.13 342.05 478.05
  A 1.55 1.50 5.5 0 1 341.26 478.68
  C 338.38 479.70 336.09 482.04 334.11 483.30
  C 331.91 484.71 329.92 486.22 327.49 487.32
  C 323.11 489.28 318.84 492.06 314.71 493.72
  Q 282.73 506.59 248.57 511.18
  A 0.30 0.30 0.0 0 0 248.49 511.75
  Q 251.26 513.02 254.30 513.99
  Q 270.01 519.02 286.21 522.02
  C 290.65 522.84 295.71 522.54 300.51 523.19
  Q 306.06 523.95 308.56 523.75
  Q 312.64 523.44 316.58 522.32
  Q 318.88 521.66 321.02 521.90
  Q 329.19 522.80 337.40 523.07
  Q 339.21 523.13 342.06 522.81
  C 345.98 522.37 350.34 522.71 353.73 522.22
  Q 363.74 520.77 373.58 518.44
  Q 376.86 517.66 382.02 515.79
  C 387.78 513.71 394.85 512.22 399.63 509.88
  C 407.14 506.21 415.76 502.73 422.30 499.29
  C 435.39 492.40 448.48 484.30 459.20 474.01"
/>
<path stroke="#0c2846" vector-effect="non-scaling-stroke" d="
  M 459.20 474.01
  C 470.57 464.10 480.89 453.52 489.84 441.10
  Q 496.14 432.33 501.91 423.20
  Q 503.86 420.12 505.04 415.94
  A 1.73 1.73 0.0 0 0 503.64 413.75
  Q 500.41 413.26 496.68 414.66
  Q 494.74 415.39 492.75 415.92
  Q 490.85 416.44 488.95 417.36
  C 486.04 418.76 482.68 419.56 480.08 420.67
  Q 475.43 422.66 470.79 424.65
  Q 466.21 426.62 461.79 429.21
  Q 450.29 435.95 438.67 442.49
  Q 437.03 443.41 435.47 444.58"
/>
<path stroke="#0f2e50" vector-effect="non-scaling-stroke" d="
  M 459.20 474.01
  Q 457.06 474.49 455.94 476.46
  Q 455.68 476.91 455.20 476.72
  Q 453.49 476.01 452.51 476.14
  Q 450.29 476.43 446.34 477.95
  Q 445.87 478.13 445.38 478.04
  Q 442.34 477.51 438.52 477.78
  C 435.78 477.96 434.96 476.01 435.21 473.54
  Q 435.82 467.48 435.42 461.46
  Q 435.03 455.61 435.10 453.03
  Q 435.22 448.77 435.47 444.58"
/>
</g>
<path fill="#164068" d="
  M 409.83 59.43
  C 413.37 66.13 414.62 71.23 414.76 79.44
  Q 414.89 86.70 415.64 93.72
  Q 418.83 96.39 421.05 97.17
  Q 425.92 98.87 429.09 100.65
  Q 429.32 101.18 429.79 101.57
  A 0.63 0.63 0.0 0 1 429.60 102.64
  L 428.57 103.02
  Q 428.34 103.11 428.38 103.36
  Q 428.43 103.62 428.62 103.80
  Q 429.25 104.39 428.49 104.79
  L 427.19 105.46
  A 1.12 1.12 0.0 0 0 427.84 107.57
  Q 428.81 107.46 429.68 108.09
  A 0.59 0.58 55.6 0 1 429.49 109.13
  Q 425.51 110.16 421.90 108.60
  Q 421.14 108.27 420.32 108.12
  C 418.21 107.73 416.08 106.10 413.79 105.50
  A 1.33 1.33 0.0 0 0 412.95 105.56
  Q 411.35 106.21 410.64 104.75
  Q 410.41 104.28 409.90 104.21
  Q 407.28 103.83 405.10 102.18
  Q 404.96 102.07 405.01 101.90
  L 405.10 101.62
  Q 405.14 101.49 404.49 101.21
  Q 403.24 100.65 402.23 101.57
  Q 401.84 101.92 401.35 101.74
  Q 398.00 100.52 394.54 101.41
  Q 394.24 101.49 394.13 101.20
  L 393.87 100.44
  A 0.24 0.22 -87.4 0 0 393.77 100.32
  Q 393.02 99.86 391.69 99.41
  A 0.51 0.51 0.0 0 0 391.04 99.77
  L 390.81 100.75
  A 0.39 0.39 0.0 0 1 390.05 100.62
  Q 390.57 95.29 389.64 89.77
  A 0.13 0.13 0.0 0 0 389.39 89.80
  Q 389.41 90.13 389.43 90.49
  Q 389.60 93.56 388.26 95.85
  Q 388.21 88.47 388.20 81.25
  C 388.20 65.63 366.96 60.22 360.75 75.42
  Q 359.64 78.14 359.63 84.71
  Q 359.58 127.50 359.61 170.31
  L 359.23 162.58
  Q 359.21 162.19 359.03 162.54
  C 358.43 163.65 359.43 164.83 358.37 165.95
  Q 357.89 166.46 357.88 165.75
  L 357.88 165.10
  Q 357.88 164.91 357.69 164.97
  Q 357.57 165.01 357.43 165.11
  Q 357.10 165.34 356.99 164.95
  Q 356.73 164.04 355.85 164.11
  Q 355.28 164.16 354.90 163.74
  L 353.27 161.96
  Q 353.01 161.67 352.61 161.66
  Q 349.51 161.62 346.88 159.88
  Q 346.51 159.64 346.07 159.61
  L 342.45 159.36
  Q 341.99 159.33 341.68 159.66
  Q 340.63 160.77 339.72 160.01
  Q 339.18 159.56 338.83 160.18
  Q 337.57 162.46 335.46 161.18
  Q 334.87 160.83 334.87 161.52
  L 334.86 162.74
  A 0.21 0.21 0.0 0 1 334.44 162.75
  L 333.37 132.12
  Q 333.37 132.10 333.49 132.12
  Q 333.58 132.14 333.40 132.12
  Q 333.33 132.12 333.35 132.19
  Q 333.55 133.04 333.27 133.84
  Q 332.98 134.67 332.94 133.79
  Q 332.86 132.14 332.20 130.77
  Q 331.96 110.16 331.95 89.53
  C 331.94 81.11 332.39 75.31 326.96 70.30
  C 320.31 64.15 308.71 64.76 305.00 73.94
  Q 303.67 77.24 303.71 84.72
  Q 304.07 146.64 303.65 208.55
  L 303.00 177.57
  Q 302.99 177.03 302.54 176.72
  Q 300.74 175.54 301.63 173.67
  Q 301.90 173.09 301.40 172.70
  Q 297.48 169.64 294.40 165.73
  Q 293.58 164.69 292.26 163.85
  Q 291.02 163.06 289.97 162.06
  Q 288.97 161.11 287.82 160.61
  C 285.21 159.48 284.29 157.20 281.27 157.29
  Q 280.86 157.30 280.56 157.03
  L 278.93 155.55
  Q 278.61 155.26 278.29 155.56
  L 277.03 156.74
  Q 276.47 157.26 276.41 156.49
  Q 276.31 155.20 276.39 153.89
  Q 276.39 153.87 276.38 153.87
  Q 276.38 153.87 276.37 153.87
  Q 276.33 153.87 276.33 153.90
  L 275.99 157.95
  L 275.84 106.27
  A 0.57 0.57 0.0 0 0 275.12 105.73
  C 262.07 109.44 248.67 113.42 236.84 118.66
  C 220.79 125.78 207.08 134.75 193.11 144.95
  C 176.72 156.90 162.30 172.35 150.17 188.63
  L 150.27 187.50
  A 0.35 0.35 0.0 0 0 149.64 187.27
  Q 149.13 188.01 148.54 188.61
  Q 148.04 189.13 147.26 189.59
  Q 145.15 190.81 143.41 192.47
  Q 143.11 192.76 142.75 192.54
  Q 139.63 190.67 136.70 193.14
  Q 136.49 193.31 136.64 193.54
  L 136.86 193.88
  A 0.38 0.19 15.2 0 1 136.29 194.00
  Q 135.97 193.81 135.55 194.08
  Q 130.08 197.67 125.07 201.95
  A 0.84 0.83 -55.4 0 1 124.27 202.10
  Q 121.27 201.07 119.88 203.52
  Q 118.67 205.65 116.99 206.35
  Q 116.56 206.53 116.37 206.11
  L 115.18 203.53
  A 0.66 0.66 0.0 0 0 114.04 203.43
  L 112.06 206.20
  A 0.43 0.43 0.0 0 1 111.71 206.38
  L 111.36 206.38
  A 0.31 0.31 0.0 0 1 111.07 205.96
  Q 111.62 204.55 110.65 204.35
  Q 115.54 195.10 120.18 188.18
  C 128.84 175.27 138.89 161.74 149.56 150.42
  C 181.61 116.42 221.86 93.69 266.86 81.09
  C 271.55 79.78 277.12 81.43 277.69 74.46
  Q 278.00 70.59 278.28 69.63
  Q 283.15 52.40 297.62 44.02
  C 310.65 36.47 325.52 36.71 337.88 45.43
  C 340.01 46.93 342.29 49.57 344.81 51.19
  A 2.52 2.51 -53.5 0 0 348.09 50.69
  C 356.01 41.32 367.75 37.61 379.79 38.97
  C 392.46 40.40 403.42 48.57 409.83 59.43
  Z"
/>
<path fill="#fefefe" d="
  M 409.83 59.43
  Q 415.34 67.85 415.97 76.25
  Q 416.46 82.67 415.64 93.72
  Q 414.89 86.70 414.76 79.44
  C 414.62 71.23 413.37 66.13 409.83 59.43
  Z"
/>
<path fill="#fefefe" d="
  M 332.20 130.77
  L 332.01 197.74
  Q 324.83 205.19 319.91 212.39
  Q 313.15 222.29 310.24 234.15
  Q 308.98 239.27 308.89 247.19
  Q 308.55 278.29 307.68 309.37
  Q 307.63 311.09 306.75 310.47
  Q 306.25 303.28 304.77 296.25
  Q 303.84 291.86 303.84 288.16
  Q 303.78 248.34 303.65 208.55
  Q 304.07 146.64 303.71 84.72
  Q 303.67 77.24 305.00 73.94
  C 308.71 64.76 320.31 64.15 326.96 70.30
  C 332.39 75.31 331.94 81.11 331.95 89.53
  Q 331.96 110.16 332.20 130.77
  Z"
/>
<path fill="#fefefe" d="
  M 388.26 95.85
  L 387.84 199.67
  Q 375.26 213.23 369.06 230.11
  Q 365.33 240.28 365.20 250.25
  Q 364.85 277.89 364.88 327.25
  Q 364.89 337.06 363.33 347.17
  Q 357.40 382.14 334.80 409.47
  C 330.81 414.28 325.69 419.18 320.97 423.98
  Q 295.02 445.36 261.46 452.84
  Q 226.83 460.31 191.75 454.03
  C 178.25 451.61 165.99 446.53 153.49 440.89
  L 150.13 437.72
  Q 149.64 437.26 150.27 437.50
  Q 187.00 451.24 226.00 451.28
  C 242.67 451.30 258.44 448.28 274.26 443.19
  Q 305.94 433.00 328.35 408.37
  Q 335.17 401.45 341.14 391.66
  Q 359.55 361.48 359.67 326.50
  Q 359.95 248.38 359.61 170.31
  Q 359.58 127.50 359.63 84.71
  Q 359.64 78.14 360.75 75.42
  C 366.96 60.22 388.20 65.63 388.20 81.25
  Q 388.21 88.47 388.26 95.85
  Z"
/>
<path fill="#13365b" d="
  M 429.09 100.65
  Q 450.21 112.63 465.57 124.42
  Q 490.82 143.79 510.19 169.07
  Q 512.89 172.59 515.28 176.17
  C 516.08 178.59 517.49 183.02 513.75 182.91
  Q 488.96 182.21 468.36 189.46
  Q 468.28 186.01 462.83 188.71
  Q 462.38 188.93 462.10 188.52
  Q 460.80 186.60 458.21 187.05
  A 1.28 1.27 51.9 0 1 457.42 186.95
  C 454.14 185.42 451.57 186.68 448.48 186.39
  Q 439.58 185.56 431.27 189.09
  Q 430.83 189.28 430.36 189.23
  Q 427.76 188.98 425.65 190.57
  Q 425.28 190.85 424.80 190.82
  Q 421.99 190.66 420.21 192.63
  Q 419.14 193.83 418.40 194.13
  Q 417.20 194.62 415.92 194.71
  Q 415.86 194.72 415.86 194.78
  L 415.86 195.24
  Q 415.85 195.44 415.66 195.46
  Q 413.45 195.78 412.01 197.47
  A 1.31 1.30 14.3 0 1 411.28 197.90
  Q 404.91 199.25 400.61 203.67
  Q 398.94 205.38 396.94 206.83
  Q 394.92 208.30 393.31 210.23
  Q 393.06 210.52 392.69 210.60
  Q 391.96 210.75 392.05 211.78
  Q 392.14 212.77 391.10 213.21
  Q 390.65 213.40 390.65 212.91
  Q 390.60 209.54 389.96 207.88
  Q 389.44 206.53 389.89 205.43
  Q 389.99 205.18 389.77 205.02
  L 389.54 204.85
  Q 389.06 204.50 389.06 205.10
  Q 389.08 206.62 388.88 208.13
  C 388.60 210.39 389.23 212.38 388.77 214.67
  C 388.20 217.55 388.35 219.59 388.09 222.22
  L 387.84 199.67
  L 388.26 95.85
  Q 389.60 93.56 389.43 90.49
  Q 389.41 90.13 389.39 89.80
  A 0.13 0.13 0.0 0 1 389.64 89.77
  Q 390.57 95.29 390.05 100.62
  A 0.39 0.39 0.0 0 0 390.81 100.75
  L 391.04 99.77
  A 0.51 0.51 0.0 0 1 391.69 99.41
  Q 393.02 99.86 393.77 100.32
  A 0.24 0.22 -87.4 0 1 393.87 100.44
  L 394.13 101.20
  Q 394.24 101.49 394.54 101.41
  Q 398.00 100.52 401.35 101.74
  Q 401.84 101.92 402.23 101.57
  Q 403.24 100.65 404.49 101.21
  Q 405.14 101.49 405.10 101.62
  L 405.01 101.90
  Q 404.96 102.07 405.10 102.18
  Q 407.28 103.83 409.90 104.21
  Q 410.41 104.28 410.64 104.75
  Q 411.35 106.21 412.95 105.56
  A 1.33 1.33 0.0 0 1 413.79 105.50
  C 416.08 106.10 418.21 107.73 420.32 108.12
  Q 421.14 108.27 421.90 108.60
  Q 425.51 110.16 429.49 109.13
  A 0.59 0.58 55.6 0 0 429.68 108.09
  Q 428.81 107.46 427.84 107.57
  A 1.12 1.12 0.0 0 1 427.19 105.46
  L 428.49 104.79
  Q 429.25 104.39 428.62 103.80
  Q 428.43 103.62 428.38 103.36
  Q 428.34 103.11 428.57 103.02
  L 429.60 102.64
  A 0.63 0.63 0.0 0 0 429.79 101.57
  Q 429.32 101.18 429.09 100.65
  Z
  M 435.42 172.16
  L 464.92 159.45
  A 0.37 0.37 0.0 0 0 465.02 158.83
  Q 454.22 149.61 443.21 141.04
  Q 439.72 138.32 434.98 136.03
  L 416.14 124.74
  A 0.82 0.81 15.8 0 0 414.90 125.43
  L 414.75 182.18
  Q 414.75 182.97 415.45 182.60
  L 435.42 172.16
  Z"
/>
<path fill="#01fbf5" d="
  M 275.99 157.95
  L 275.66 164.51
  Q 275.64 165.01 275.31 165.39
  Q 270.44 171.02 265.08 174.97
  Q 251.76 184.15 243.94 187.19
  Q 232.82 191.51 221.56 195.44
  Q 219.57 196.13 217.56 196.73
  Q 190.03 204.99 162.03 198.82
  Q 161.93 198.80 157.92 198.18
  Q 154.81 197.70 152.13 195.90
  Q 151.73 195.63 151.24 195.63
  Q 148.09 195.68 145.57 194.23
  L 150.17 188.63
  C 162.30 172.35 176.72 156.90 193.11 144.95
  C 207.08 134.75 220.79 125.78 236.84 118.66
  C 248.67 113.42 262.07 109.44 275.12 105.73
  A 0.57 0.57 0.0 0 1 275.84 106.27
  L 275.99 157.95
  Z"
/>
<path fill="#027cb1" d="
  M 434.98 136.03
  Q 435.21 152.21 434.89 167.99
  Q 434.85 170.14 435.42 172.16
  L 415.45 182.60
  Q 414.75 182.97 414.75 182.18
  L 414.90 125.43
  A 0.82 0.81 15.8 0 1 416.14 124.74
  L 434.98 136.03
  Z"
/>
<path fill="#0b2544" d="
  M 332.20 130.77
  Q 332.86 132.14 332.94 133.79
  Q 332.98 134.67 333.27 133.84
  Q 333.55 133.04 333.35 132.19
  Q 333.33 132.12 333.40 132.12
  Q 333.58 132.14 333.49 132.12
  Q 333.37 132.10 333.37 132.12
  L 334.44 162.75
  A 0.21 0.21 0.0 0 0 334.86 162.74
  L 334.87 161.52
  Q 334.87 160.83 335.46 161.18
  Q 337.57 162.46 338.83 160.18
  Q 339.18 159.56 339.72 160.01
  Q 340.63 160.77 341.68 159.66
  Q 341.99 159.33 342.45 159.36
  L 346.07 159.61
  Q 346.51 159.64 346.88 159.88
  Q 349.51 161.62 352.61 161.66
  Q 353.01 161.67 353.27 161.96
  L 354.90 163.74
  Q 355.28 164.16 355.85 164.11
  Q 356.73 164.04 356.99 164.95
  Q 357.10 165.34 357.43 165.11
  Q 357.57 165.01 357.69 164.97
  Q 357.88 164.91 357.88 165.10
  L 357.88 165.75
  Q 357.89 166.46 358.37 165.95
  C 359.43 164.83 358.43 163.65 359.03 162.54
  Q 359.21 162.19 359.23 162.58
  L 359.61 170.31
  Q 359.95 248.38 359.67 326.50
  Q 359.55 361.48 341.14 391.66
  Q 335.17 401.45 328.35 408.37
  Q 326.87 407.28 326.04 409.77
  Q 325.85 410.35 325.24 410.41
  L 322.15 410.73
  Q 321.63 410.78 321.89 410.33
  L 323.10 408.29
  A 0.63 0.62 -65.7 0 0 322.76 407.37
  L 319.73 406.40
  Q 319.32 406.27 319.12 405.89
  Q 318.26 404.29 316.61 403.74
  Q 316.13 403.58 316.16 403.08
  Q 316.31 400.33 313.61 399.15
  Q 312.88 398.83 312.84 397.90
  Q 312.81 397.37 312.28 397.25
  Q 309.96 396.76 308.70 394.74
  Q 308.07 393.74 308.45 392.89
  Q 308.92 391.84 308.94 391.77
  Q 309.50 389.29 309.61 386.56
  Q 329.37 364.00 331.62 334.50
  Q 331.87 331.27 331.92 314.50
  Q 332.10 256.17 332.01 197.74
  L 332.20 130.77
  Z"
/>
<path fill="#01a7cd" d="
  M 434.98 136.03
  Q 439.72 138.32 443.21 141.04
  Q 454.22 149.61 465.02 158.83
  A 0.37 0.37 0.0 0 1 464.92 159.45
  L 435.42 172.16
  Q 434.85 170.14 434.89 167.99
  Q 435.21 152.21 434.98 136.03
  Z"
/>
<path fill="#0b2544" d="
  M 303.65 208.55
  Q 303.78 248.34 303.84 288.16
  Q 303.84 291.86 304.77 296.25
  Q 306.25 303.28 306.75 310.47
  Q 306.97 320.76 304.72 331.08
  Q 300.82 348.78 286.36 362.85
  Q 261.34 387.17 226.43 386.51
  L 211.73 386.51
  C 175.91 384.15 141.16 376.32 109.72 358.76
  Q 108.58 358.12 109.52 359.03
  Q 111.35 360.81 111.57 361.83
  Q 113.78 370.77 117.95 378.68
  Q 114.52 379.45 117.20 381.56
  Q 117.29 381.63 117.17 381.62
  Q 117.04 381.60 116.90 381.66
  Q 116.68 381.75 116.78 381.96
  L 117.49 383.54
  Q 117.62 383.81 117.32 383.81
  L 117.05 383.81
  Q 116.77 383.81 116.69 384.09
  L 116.44 384.99
  Q 116.33 385.39 116.04 385.09
  Q 112.59 381.53 108.24 384.12
  Q 107.55 384.53 106.91 384.33
  Q 106.49 384.19 106.08 384.36
  Q 102.87 385.68 100.00 384.65
  Q 97.14 383.62 94.81 384.07
  Q 94.78 384.08 94.75 384.10
  Q 94.67 384.20 94.62 384.34
  Q 94.56 384.55 94.46 384.36
  Q 93.82 383.09 92.33 383.72
  Q 86.33 365.19 84.25 348.99
  Q 82.84 337.92 81.98 321.67
  C 81.55 313.63 82.53 305.30 82.86 297.01
  Q 83.35 284.39 87.81 264.25
  Q 89.07 263.59 89.49 264.19
  Q 89.61 264.35 89.75 264.21
  L 90.95 263.06
  A 0.73 0.72 -45.3 0 1 91.95 263.05
  L 93.02 264.05
  Q 93.49 264.49 94.04 264.18
  Q 95.38 263.42 96.72 263.89
  A 0.84 0.83 -58.4 0 0 97.62 263.67
  Q 98.49 262.75 99.25 263.52
  A 0.92 0.91 54.5 0 0 100.29 263.70
  Q 101.56 263.09 102.73 263.71
  Q 103.25 263.97 103.70 263.62
  L 108.45 259.88
  Q 108.85 259.57 109.36 259.55
  Q 110.20 259.51 110.02 258.45
  A 0.27 0.26 -65.0 0 1 110.51 258.27
  Q 110.64 258.50 110.76 258.25
  Q 111.35 257.05 111.36 258.50
  L 111.36 259.02
  A 0.18 0.18 0.0 0 0 111.69 259.13
  Q 113.46 256.78 115.28 257.61
  Q 111.30 272.96 108.72 290.75
  Q 108.40 292.91 109.27 294.22
  Q 108.20 294.90 108.15 296.25
  Q 107.71 309.22 107.08 321.68
  A 2.26 2.25 17.4 0 0 108.13 323.69
  Q 142.34 345.19 182.45 350.67
  Q 183.16 350.77 182.79 350.16
  Q 175.31 337.81 173.00 323.99
  Q 170.54 305.73 176.85 289.60
  Q 178.22 286.10 183.20 276.99
  Q 200.63 251.78 232.28 246.15
  Q 255.13 243.88 275.03 256.03
  Q 275.72 256.45 275.72 255.65
  L 275.99 157.95
  L 276.33 153.90
  Q 276.33 153.87 276.37 153.87
  Q 276.38 153.87 276.38 153.87
  Q 276.39 153.87 276.39 153.89
  Q 276.31 155.20 276.41 156.49
  Q 276.47 157.26 277.03 156.74
  L 278.29 155.56
  Q 278.61 155.26 278.93 155.55
  L 280.56 157.03
  Q 280.86 157.30 281.27 157.29
  C 284.29 157.20 285.21 159.48 287.82 160.61
  Q 288.97 161.11 289.97 162.06
  Q 291.02 163.06 292.26 163.85
  Q 293.58 164.69 294.40 165.73
  Q 297.48 169.64 301.40 172.70
  Q 301.90 173.09 301.63 173.67
  Q 300.74 175.54 302.54 176.72
  Q 302.99 177.03 303.00 177.57
  L 303.65 208.55
  Z
  M 202.11 302.09
  C 197.24 316.82 199.61 332.78 211.11 343.48
  Q 217.29 349.23 224.57 351.98
  Q 248.82 361.14 267.60 343.15
  C 282.74 329.08 282.69 305.16 270.68 289.55
  C 252.00 263.48 210.05 270.44 202.11 302.09
  Z"
/>
<path fill="#01a7cd" d="
  M 275.99 157.95
  L 275.72 255.65
  Q 275.72 256.45 275.03 256.03
  Q 255.13 243.88 232.28 246.15
  Q 234.91 245.53 236.59 244.21
  Q 236.95 243.92 237.42 243.96
  L 239.99 244.16
  Q 240.43 244.19 240.45 243.76
  C 240.59 241.23 242.04 240.89 243.36 239.43
  Q 251.36 230.66 256.67 220.03
  Q 257.15 219.07 257.33 217.36
  Q 257.49 215.93 258.10 214.64
  Q 259.64 211.38 259.77 210.94
  Q 262.95 200.32 264.06 194.49
  Q 265.60 186.47 265.08 174.97
  Q 270.44 171.02 275.31 165.39
  Q 275.64 165.01 275.66 164.51
  L 275.99 157.95
  Z"
/>
<path fill="#02c9e3" d="
  M 265.08 174.97
  Q 265.60 186.47 264.06 194.49
  Q 262.95 200.32 259.77 210.94
  Q 259.64 211.38 258.10 214.64
  Q 257.49 215.93 257.33 217.36
  Q 257.15 219.07 256.67 220.03
  Q 251.36 230.66 243.36 239.43
  C 242.04 240.89 240.59 241.23 240.45 243.76
  Q 240.43 244.19 239.99 244.16
  L 237.42 243.96
  Q 236.95 243.92 236.59 244.21
  Q 234.91 245.53 232.28 246.15
  Q 200.63 251.78 183.20 276.99
  Q 145.59 279.08 117.39 255.38
  Q 116.98 255.04 116.94 254.52
  L 116.87 253.57
  Q 126.17 221.08 145.57 194.23
  Q 148.09 195.68 151.24 195.63
  Q 151.73 195.63 152.13 195.90
  Q 154.81 197.70 157.92 198.18
  Q 161.93 198.80 162.03 198.82
  Q 190.03 204.99 217.56 196.73
  Q 219.57 196.13 221.56 195.44
  Q 232.82 191.51 243.94 187.19
  Q 251.76 184.15 265.08 174.97
  Z"
/>
<path fill="#fefefe" d="
  M 515.28 176.17
  Q 518.35 179.18 516.93 183.05
  A 1.27 1.26 9.8 0 1 515.74 183.88
  C 509.16 183.85 502.64 183.42 496.23 184.71
  C 493.43 185.27 490.51 185.14 487.95 185.65
  C 480.33 187.16 472.45 188.13 465.96 192.67
  Q 464.42 192.15 464.97 190.76
  L 468.36 189.46
  Q 488.96 182.21 513.75 182.91
  C 517.49 183.02 516.08 178.59 515.28 176.17
  Z"
/>
<path fill="#0b2544" d="
  M 468.36 189.46
  L 464.97 190.76
  Q 449.62 196.55 435.51 204.47
  Q 432.14 205.63 431.28 206.13
  Q 425.48 209.54 420.67 214.19
  C 418.66 216.13 414.61 217.67 414.60 220.75
  Q 414.59 236.16 414.91 252.37
  L 414.96 280.97
  A 0.74 0.74 0.0 0 0 416.15 281.55
  Q 425.30 274.59 434.93 269.21
  Q 457.01 255.91 483.75 246.50
  Q 499.56 240.94 514.78 238.63
  L 525.30 237.34
  A 0.54 0.54 0.0 0 0 525.72 236.57
  Q 520.29 225.13 510.32 216.15
  C 525.38 215.07 535.48 213.19 543.29 228.46
  L 547.13 237.48
  C 551.09 246.68 558.97 263.93 546.18 268.28
  Q 543.48 269.20 536.25 269.08
  C 511.24 268.68 486.38 276.31 464.43 287.39
  Q 448.53 294.81 435.42 303.67
  Q 434.93 304.00 435.02 304.89
  Q 433.46 304.78 432.16 305.68
  Q 423.77 311.43 417.25 316.72
  C 414.78 318.72 414.31 320.76 414.43 323.75
  Q 414.97 337.25 415.02 350.55
  A 0.76 0.76 0.0 0 0 416.21 351.17
  L 435.49 338.10
  Q 450.99 328.36 465.56 321.48
  C 467.53 321.14 469.28 321.06 471.08 320.28
  C 494.75 310.00 521.11 301.95 546.48 303.01
  Q 552.99 303.28 557.97 308.62
  Q 558.14 310.35 558.67 311.78
  C 561.49 319.26 559.30 326.48 552.53 329.85
  Q 549.89 331.16 544.72 331.51
  Q 503.48 334.32 467.01 354.26
  L 467.00 353.36
  Q 467.00 352.86 466.51 352.98
  L 464.24 353.52
  A 0.17 0.16 -20.1 0 0 464.13 353.75
  Q 464.19 353.86 464.25 353.97
  Q 464.43 354.31 464.06 354.41
  Q 462.72 354.80 461.94 355.78
  Q 461.31 356.58 460.99 356.75
  Q 460.33 357.10 459.73 356.97
  Q 459.28 356.86 458.87 357.09
  Q 457.20 358.04 455.39 358.41
  Q 454.90 358.52 454.52 358.83
  Q 451.35 361.46 447.59 363.22
  Q 447.32 363.35 447.01 363.36
  Q 446.77 363.37 446.53 363.49
  Q 446.38 363.56 446.38 363.74
  Q 446.38 363.87 446.38 364.00
  Q 446.37 364.12 446.28 364.06
  L 445.10 363.32
  A 0.31 0.30 16.5 0 0 444.63 363.57
  L 444.63 363.99
  Q 444.63 364.33 444.34 364.16
  Q 443.19 363.50 441.87 363.68
  C 440.91 363.82 440.44 364.72 439.09 364.34
  Q 438.64 364.21 438.28 363.92
  Q 437.72 363.48 437.09 363.18
  Q 436.76 363.03 436.50 362.76
  L 434.55 360.69
  Q 434.12 360.23 433.58 360.56
  Q 431.40 361.90 427.25 362.59
  Q 424.08 363.12 420.88 363.48
  A 0.78 0.76 -86.1 0 0 420.22 364.07
  L 420.14 364.37
  Q 420.02 364.85 419.52 364.85
  Q 416.09 364.87 413.86 367.57
  Q 413.33 368.21 412.84 368.98
  Q 412.56 369.40 412.06 369.39
  Q 410.01 369.38 407.03 370.38
  Q 404.45 371.25 401.00 370.11
  Q 400.55 369.96 400.14 370.22
  Q 397.26 372.02 395.23 371.97
  Q 392.86 371.92 392.54 373.81
  Q 392.46 374.33 391.93 374.40
  Q 389.29 374.76 387.96 376.86
  Q 387.71 377.25 387.27 377.37
  Q 386.33 377.61 385.89 376.86
  Q 385.63 376.40 385.39 376.87
  Q 385.00 377.62 385.56 378.15
  Q 386.25 378.83 385.41 378.34
  Q 384.89 378.03 384.66 377.11
  Q 384.19 375.23 383.30 374.10
  Q 387.84 358.14 387.99 340.25
  L 388.09 222.22
  C 388.35 219.59 388.20 217.55 388.77 214.67
  C 389.23 212.38 388.60 210.39 388.88 208.13
  Q 389.08 206.62 389.06 205.10
  Q 389.06 204.50 389.54 204.85
  L 389.77 205.02
  Q 389.99 205.18 389.89 205.43
  Q 389.44 206.53 389.96 207.88
  Q 390.60 209.54 390.65 212.91
  Q 390.65 213.40 391.10 213.21
  Q 392.14 212.77 392.05 211.78
  Q 391.96 210.75 392.69 210.60
  Q 393.06 210.52 393.31 210.23
  Q 394.92 208.30 396.94 206.83
  Q 398.94 205.38 400.61 203.67
  Q 404.91 199.25 411.28 197.90
  A 1.31 1.30 14.3 0 0 412.01 197.47
  Q 413.45 195.78 415.66 195.46
  Q 415.85 195.44 415.86 195.24
  L 415.86 194.78
  Q 415.86 194.72 415.92 194.71
  Q 417.20 194.62 418.40 194.13
  Q 419.14 193.83 420.21 192.63
  Q 421.99 190.66 424.80 190.82
  Q 425.28 190.85 425.65 190.57
  Q 427.76 188.98 430.36 189.23
  Q 430.83 189.28 431.27 189.09
  Q 439.58 185.56 448.48 186.39
  C 451.57 186.68 454.14 185.42 457.42 186.95
  A 1.28 1.27 51.9 0 0 458.21 187.05
  Q 460.80 186.60 462.10 188.52
  Q 462.38 188.93 462.83 188.71
  Q 468.28 186.01 468.36 189.46
  Z"
/>
<path fill="#13365b" d="
  M 150.17 188.63
  L 145.57 194.23
  Q 126.17 221.08 116.87 253.57
  L 115.28 257.61
  Q 113.46 256.78 111.69 259.13
  A 0.18 0.18 0.0 0 1 111.36 259.02
  L 111.36 258.50
  Q 111.35 257.05 110.76 258.25
  Q 110.64 258.50 110.51 258.27
  A 0.27 0.26 -65.0 0 0 110.02 258.45
  Q 110.20 259.51 109.36 259.55
  Q 108.85 259.57 108.45 259.88
  L 103.70 263.62
  Q 103.25 263.97 102.73 263.71
  Q 101.56 263.09 100.29 263.70
  A 0.92 0.91 54.5 0 1 99.25 263.52
  Q 98.49 262.75 97.62 263.67
  A 0.84 0.83 -58.4 0 1 96.72 263.89
  Q 95.38 263.42 94.04 264.18
  Q 93.49 264.49 93.02 264.05
  L 91.95 263.05
  A 0.73 0.72 -45.3 0 0 90.95 263.06
  L 89.75 264.21
  Q 89.61 264.35 89.49 264.19
  Q 89.07 263.59 87.81 264.25
  Q 95.59 232.77 110.65 204.35
  Q 111.62 204.55 111.07 205.96
  A 0.31 0.31 0.0 0 0 111.36 206.38
  L 111.71 206.38
  A 0.43 0.43 0.0 0 0 112.06 206.20
  L 114.04 203.43
  A 0.66 0.66 0.0 0 1 115.18 203.53
  L 116.37 206.11
  Q 116.56 206.53 116.99 206.35
  Q 118.67 205.65 119.88 203.52
  Q 121.27 201.07 124.27 202.10
  A 0.84 0.83 -55.4 0 0 125.07 201.95
  Q 130.08 197.67 135.55 194.08
  Q 135.97 193.81 136.29 194.00
  A 0.38 0.19 15.2 0 0 136.86 193.88
  L 136.64 193.54
  Q 136.49 193.31 136.70 193.14
  Q 139.63 190.67 142.75 192.54
  Q 143.11 192.76 143.41 192.47
  Q 145.15 190.81 147.26 189.59
  Q 148.04 189.13 148.54 188.61
  Q 149.13 188.01 149.64 187.27
  A 0.35 0.35 0.0 0 1 150.27 187.50
  L 150.17 188.63
  Z"
/>
<path fill="#bed5e1" d="
  M 464.97 190.76
  Q 464.42 192.15 465.96 192.67
  C 464.47 195.65 465.96 197.83 465.84 200.77
  Q 465.63 205.63 465.64 205.75
  Q 465.97 214.73 465.39 224.64
  Q 450.77 230.12 436.01 238.73
  Q 435.63 238.87 435.42 238.77
  Q 435.45 238.95 435.26 238.87
  Q 435.09 238.81 435.09 238.63
  L 435.51 204.47
  Q 449.62 196.55 464.97 190.76
  Z"
/>
<path fill="#bed5e1" d="
  M 332.01 197.74
  Q 332.10 256.17 331.92 314.50
  Q 331.87 331.27 331.62 334.50
  Q 329.37 364.00 309.61 386.56
  L 298.94 396.75
  Q 301.26 392.69 301.42 389.15
  Q 301.44 388.66 301.80 388.33
  Q 304.78 385.68 304.82 381.49
  Q 304.92 372.29 304.70 363.03
  L 304.73 351.30
  L 304.72 331.08
  Q 306.97 320.76 306.75 310.47
  Q 307.63 311.09 307.68 309.37
  Q 308.55 278.29 308.89 247.19
  Q 308.98 239.27 310.24 234.15
  Q 313.15 222.29 319.91 212.39
  Q 324.83 205.19 332.01 197.74
  Z"
/>
<path fill="#bed5e1" d="
  M 387.84 199.67
  L 388.09 222.22
  L 387.99 340.25
  Q 386.79 341.45 385.74 342.26
  Q 384.70 343.07 383.05 343.48
  Q 379.20 344.46 375.31 345.40
  Q 374.06 345.70 370.65 345.90
  Q 368.14 346.05 365.81 347.08
  Q 365.20 347.35 364.94 346.73
  L 364.68 346.12
  Q 364.46 345.60 363.99 345.91
  Q 363.52 346.24 363.33 347.17
  Q 364.89 337.06 364.88 327.25
  Q 364.85 277.89 365.20 250.25
  Q 365.33 240.28 369.06 230.11
  Q 375.26 213.23 387.84 199.67
  Z"
/>
<path fill="#365b7a" d="
  M 435.51 204.47
  L 435.09 238.63
  Q 435.09 238.81 435.26 238.87
  Q 435.45 238.95 435.42 238.77
  L 414.91 252.37
  Q 414.59 236.16 414.60 220.75
  C 414.61 217.67 418.66 216.13 420.67 214.19
  Q 425.48 209.54 431.28 206.13
  Q 432.14 205.63 435.51 204.47
  Z"
/>
<path fill="#025988" d="
  M 510.32 216.15
  Q 520.29 225.13 525.72 236.57
  A 0.54 0.54 0.0 0 1 525.30 237.34
  L 514.78 238.63
  Q 510.86 229.09 504.59 222.15
  Q 502.62 219.96 498.36 217.06
  L 510.32 216.15
  Z"
/>
<path fill="#027cb1" d="
  M 498.36 217.06
  Q 502.62 219.96 504.59 222.15
  Q 510.86 229.09 514.78 238.63
  Q 499.56 240.94 483.75 246.50
  Q 457.01 255.91 434.93 269.21
  L 435.30 240.91
  Q 435.31 240.40 435.62 239.99
  Q 436.16 239.30 436.01 238.73
  Q 450.77 230.12 465.39 224.64
  L 498.36 217.06
  Z"
/>
<path fill="#bed5e1" d="
  M 543.29 228.46
  L 547.42 237.24
  Q 547.27 237.25 547.13 237.48
  L 543.29 228.46
  Z"
/>
<path fill="#fefefe" d="
  M 547.42 237.24
  Q 549.50 241.72 553.27 253.01
  C 555.16 258.67 554.82 265.99 548.93 268.84
  Q 546.18 270.17 544.00 270.12
  C 530.49 269.78 517.02 270.57 504.00 273.96
  Q 487.78 278.18 470.71 285.96
  Q 467.06 287.62 465.68 289.69
  Q 464.57 289.05 464.43 287.39
  C 486.38 276.31 511.24 268.68 536.25 269.08
  Q 543.48 269.20 546.18 268.28
  C 558.97 263.93 551.09 246.68 547.13 237.48
  Q 547.27 237.25 547.42 237.24
  Z"
/>
<path fill="#025988" d="
  M 435.42 238.77
  Q 435.63 238.87 436.01 238.73
  Q 436.16 239.30 435.62 239.99
  Q 435.31 240.40 435.30 240.91
  L 434.93 269.21
  Q 425.30 274.59 416.15 281.55
  A 0.74 0.74 0.0 0 1 414.96 280.97
  L 414.91 252.37
  L 435.42 238.77
  Z"
/>
<path fill="#0193c0" d="
  M 116.87 253.57
  L 116.94 254.52
  Q 116.98 255.04 117.39 255.38
  Q 145.59 279.08 183.20 276.99
  Q 178.22 286.10 176.85 289.60
  Q 170.54 305.73 173.00 323.99
  Q 144.56 320.82 121.71 305.07
  C 117.34 302.06 113.32 297.97 109.27 294.22
  Q 108.40 292.91 108.72 290.75
  Q 111.30 272.96 115.28 257.61
  L 116.87 253.57
  Z"
/>
<path fill="#fefefe" d="
  M 270.68 289.55
  Q 273.40 300.60 268.89 308.89
  Q 266.55 313.19 262.65 317.36
  Q 246.82 331.16 227.05 327.70
  C 213.82 325.38 202.81 316.28 202.11 302.09
  C 210.05 270.44 252.00 263.48 270.68 289.55
  Z"
/>
<path fill="#9fbbcd" d="
  M 464.43 287.39
  Q 464.57 289.05 465.68 289.69
  C 465.56 290.29 465.24 290.85 465.29 291.47
  Q 466.44 306.14 465.56 321.48
  Q 450.99 328.36 435.49 338.10
  L 435.02 304.89
  Q 434.93 304.00 435.42 303.67
  Q 448.53 294.81 464.43 287.39
  Z"
/>
<path fill="#9fbbcd" d="
  M 270.68 289.55
  C 282.69 305.16 282.74 329.08 267.60 343.15
  Q 264.44 340.40 262.69 335.94
  C 261.34 332.51 258.95 330.75 258.27 326.81
  Q 258.19 326.35 257.81 326.07
  L 257.18 325.61
  A 0.37 0.37 0.0 0 1 257.42 324.95
  Q 260.46 325.12 259.96 322.82
  Q 259.86 322.32 260.18 321.93
  Q 261.97 319.73 262.65 317.36
  Q 266.55 313.19 268.89 308.89
  Q 273.40 300.60 270.68 289.55
  Z"
/>
<path fill="#025988" d="
  M 109.27 294.22
  C 113.32 297.97 117.34 302.06 121.71 305.07
  Q 144.56 320.82 173.00 323.99
  Q 175.31 337.81 182.79 350.16
  Q 183.16 350.77 182.45 350.67
  Q 142.34 345.19 108.13 323.69
  A 2.26 2.25 17.4 0 1 107.08 321.68
  Q 107.71 309.22 108.15 296.25
  Q 108.20 294.90 109.27 294.22
  Z"
/>
<path fill="#5f829f" d="
  M 202.11 302.09
  C 202.81 316.28 213.82 325.38 227.05 327.70
  Q 246.82 331.16 262.65 317.36
  Q 261.97 319.73 260.18 321.93
  Q 259.86 322.32 259.96 322.82
  Q 260.46 325.12 257.42 324.95
  A 0.37 0.37 0.0 0 0 257.18 325.61
  L 257.81 326.07
  Q 258.19 326.35 258.27 326.81
  C 258.95 330.75 261.34 332.51 262.69 335.94
  Q 264.44 340.40 267.60 343.15
  Q 248.82 361.14 224.57 351.98
  Q 217.29 349.23 211.11 343.48
  C 199.61 332.78 197.24 316.82 202.11 302.09
  Z"
/>
<path fill="#365b7a" d="
  M 435.02 304.89
  L 435.49 338.10
  L 416.21 351.17
  A 0.76 0.76 0.0 0 1 415.02 350.55
  Q 414.97 337.25 414.43 323.75
  C 414.31 320.76 414.78 318.72 417.25 316.72
  Q 423.77 311.43 432.16 305.68
  Q 433.46 304.78 435.02 304.89
  Z"
/>
<path fill="#fefefe" d="
  M 557.97 308.62
  Q 565.01 324.50 554.54 330.12
  Q 551.06 331.99 541.13 333.05
  Q 528.89 334.35 525.25 335.00
  Q 497.50 339.91 470.80 353.84
  Q 467.11 355.76 465.68 358.49
  Q 464.80 357.34 464.96 355.50
  L 467.01 354.26
  Q 503.48 334.32 544.72 331.51
  Q 549.89 331.16 552.53 329.85
  C 559.30 326.48 561.49 319.26 558.67 311.78
  Q 558.14 310.35 557.97 308.62
  Z"
/>
<path fill="#365b7a" d="
  M 304.72 331.08
  L 304.73 351.30
  Q 303.57 356.02 300.87 360.92
  C 299.01 364.29 295.44 366.67 292.89 369.80
  Q 292.13 370.73 289.73 373.04
  Q 288.25 374.46 286.83 376.59
  Q 284.37 380.26 279.87 382.31
  C 277.99 383.16 277.15 384.49 275.59 385.73
  C 273.56 387.35 272.30 389.71 269.69 390.94
  Q 269.23 391.15 268.96 391.59
  Q 265.35 397.52 260.30 402.22
  Q 259.27 403.17 257.41 405.65
  Q 255.66 408.00 253.47 408.20
  Q 239.71 398.38 226.43 386.51
  Q 261.34 387.17 286.36 362.85
  Q 300.82 348.78 304.72 331.08
  Z"
/>
<path fill="#9fbbcd" d="
  M 387.99 340.25
  Q 387.84 358.14 383.30 374.10
  Q 375.32 400.82 359.11 422.76
  Q 356.47 422.33 355.56 423.80
  Q 355.33 424.16 354.92 424.22
  L 347.73 425.26
  Q 347.62 425.28 347.62 425.26
  Q 347.61 425.21 347.60 425.17
  Q 347.54 425.01 347.32 425.03
  Q 344.35 425.32 341.37 425.39
  Q 341.24 425.39 336.19 425.86
  Q 333.68 426.10 331.22 425.51
  Q 328.90 424.96 327.20 425.18
  Q 324.69 425.49 322.17 425.74
  Q 321.99 425.76 321.86 425.69
  Q 321.72 425.60 321.61 425.49
  Q 321.25 425.14 321.75 425.06
  Q 322.20 425.00 322.56 424.67
  Q 323.00 424.28 322.42 424.20
  L 320.97 423.98
  C 325.69 419.18 330.81 414.28 334.80 409.47
  Q 357.40 382.14 363.33 347.17
  Q 363.52 346.24 363.99 345.91
  Q 364.46 345.60 364.68 346.12
  L 364.94 346.73
  Q 365.20 347.35 365.81 347.08
  Q 368.14 346.05 370.65 345.90
  Q 374.06 345.70 375.31 345.40
  Q 379.20 344.46 383.05 343.48
  Q 384.70 343.07 385.74 342.26
  Q 386.79 341.45 387.99 340.25
  Z"
/>
<path fill="#5f829f" d="
  M 304.73 351.30
  L 304.70 363.03
  L 303.68 372.84
  A 1.25 1.24 -21.0 0 1 303.35 373.57
  Q 301.71 375.34 301.79 377.80
  A 1.36 1.33 67.0 0 1 301.40 378.80
  Q 298.22 382.00 297.09 385.34
  Q 295.69 389.51 292.10 389.70
  Q 291.57 389.73 291.19 390.09
  Q 288.97 392.18 286.96 394.49
  C 286.19 395.37 285.99 396.68 285.01 397.36
  Q 283.36 398.51 283.31 398.56
  Q 279.17 402.61 274.80 406.47
  A 1.45 1.42 -17.9 0 0 274.32 407.39
  Q 274.13 409.41 272.35 410.28
  Q 271.73 410.59 271.25 411.09
  Q 268.99 413.43 265.72 414.06
  A 1.15 1.14 11.8 0 0 265.02 414.51
  Q 264.34 415.46 262.92 415.41
  L 253.47 408.20
  Q 255.66 408.00 257.41 405.65
  Q 259.27 403.17 260.30 402.22
  Q 265.35 397.52 268.96 391.59
  Q 269.23 391.15 269.69 390.94
  C 272.30 389.71 273.56 387.35 275.59 385.73
  C 277.15 384.49 277.99 383.16 279.87 382.31
  Q 284.37 380.26 286.83 376.59
  Q 288.25 374.46 289.73 373.04
  Q 292.13 370.73 292.89 369.80
  C 295.44 366.67 299.01 364.29 300.87 360.92
  Q 303.57 356.02 304.73 351.30
  Z"
/>
<path fill="#051931" d="
  M 467.01 354.26
  L 464.96 355.50
  Q 449.21 363.84 435.05 374.24
  Q 431.88 375.40 429.75 377.11
  Q 421.67 383.59 414.87 388.13
  Q 410.82 390.82 406.89 395.45
  Q 406.92 400.40 405.42 402.13
  Q 404.38 403.33 404.35 403.38
  C 402.49 406.42 401.31 409.97 399.63 412.76
  Q 392.26 425.03 383.96 436.68
  C 382.23 439.12 381.85 441.34 381.88 444.17
  A 0.57 0.57 0.0 0 0 382.79 444.62
  L 406.97 426.71
  L 434.83 407.89
  Q 450.59 397.21 466.20 389.38
  Q 475.83 386.01 493.01 378.55
  Q 512.96 369.88 534.48 366.73
  Q 543.99 365.34 550.06 368.39
  C 552.66 374.25 551.89 379.34 549.90 385.04
  Q 537.11 421.56 515.13 453.13
  Q 509.68 460.95 502.88 468.93
  C 471.40 505.89 433.14 529.95 386.17 543.05
  C 336.02 557.04 283.18 555.32 234.25 536.56
  Q 229.95 534.91 225.53 533.63
  Q 223.83 533.14 222.95 532.32
  L 213.76 528.29
  Q 213.11 527.95 213.07 527.67
  L 204.23 523.38
  L 194.73 517.82
  Q 192.38 515.20 189.22 514.31
  Q 186.54 512.53 183.69 510.46
  Q 140.29 478.85 113.27 431.73
  Q 99.84 408.33 92.33 383.72
  Q 93.82 383.09 94.46 384.36
  Q 94.56 384.55 94.62 384.34
  Q 94.67 384.20 94.75 384.10
  Q 94.78 384.08 94.81 384.07
  Q 97.14 383.62 100.00 384.65
  Q 102.87 385.68 106.08 384.36
  Q 106.49 384.19 106.91 384.33
  Q 107.55 384.53 108.24 384.12
  Q 112.59 381.53 116.04 385.09
  Q 116.33 385.39 116.44 384.99
  L 116.69 384.09
  Q 116.77 383.81 117.05 383.81
  L 117.32 383.81
  Q 117.62 383.81 117.49 383.54
  L 116.78 381.96
  Q 116.68 381.75 116.90 381.66
  Q 117.04 381.60 117.17 381.62
  Q 117.29 381.63 117.20 381.56
  Q 114.52 379.45 117.95 378.68
  L 126.19 395.95
  Q 126.41 396.41 126.85 396.66
  Q 142.90 405.89 161.03 410.74
  Q 168.95 414.37 180.02 417.10
  C 208.34 424.07 235.56 425.77 263.19 416.68
  Q 283.85 410.22 298.94 396.75
  L 309.61 386.56
  Q 309.50 389.29 308.94 391.77
  Q 308.92 391.84 308.45 392.89
  Q 308.07 393.74 308.70 394.74
  Q 309.96 396.76 312.28 397.25
  Q 312.81 397.37 312.84 397.90
  Q 312.88 398.83 313.61 399.15
  Q 316.31 400.33 316.16 403.08
  Q 316.13 403.58 316.61 403.74
  Q 318.26 404.29 319.12 405.89
  Q 319.32 406.27 319.73 406.40
  L 322.76 407.37
  A 0.63 0.62 -65.7 0 1 323.10 408.29
  L 321.89 410.33
  Q 321.63 410.78 322.15 410.73
  L 325.24 410.41
  Q 325.85 410.35 326.04 409.77
  Q 326.87 407.28 328.35 408.37
  Q 305.94 433.00 274.26 443.19
  C 258.44 448.28 242.67 451.30 226.00 451.28
  Q 187.00 451.24 150.27 437.50
  Q 149.64 437.26 150.13 437.72
  L 153.49 440.89
  Q 156.36 446.62 161.81 449.70
  Q 171.10 463.61 184.41 473.34
  Q 187.00 475.23 192.01 476.86
  Q 205.90 481.38 217.68 481.80
  Q 225.05 483.34 231.75 483.46
  Q 268.15 484.12 301.80 468.86
  C 324.66 458.69 343.66 442.32 359.11 422.76
  Q 375.32 400.82 383.30 374.10
  Q 384.19 375.23 384.66 377.11
  Q 384.89 378.03 385.41 378.34
  Q 386.25 378.83 385.56 378.15
  Q 385.00 377.62 385.39 376.87
  Q 385.63 376.40 385.89 376.86
  Q 386.33 377.61 387.27 377.37
  Q 387.71 377.25 387.96 376.86
  Q 389.29 374.76 391.93 374.40
  Q 392.46 374.33 392.54 373.81
  Q 392.86 371.92 395.23 371.97
  Q 397.26 372.02 400.14 370.22
  Q 400.55 369.96 401.00 370.11
  Q 404.45 371.25 407.03 370.38
  Q 410.01 369.38 412.06 369.39
  Q 412.56 369.40 412.84 368.98
  Q 413.33 368.21 413.86 367.57
  Q 416.09 364.87 419.52 364.85
  Q 420.02 364.85 420.14 364.37
  L 420.22 364.07
  A 0.78 0.76 -86.1 0 1 420.88 363.48
  Q 424.08 363.12 427.25 362.59
  Q 431.40 361.90 433.58 360.56
  Q 434.12 360.23 434.55 360.69
  L 436.50 362.76
  Q 436.76 363.03 437.09 363.18
  Q 437.72 363.48 438.28 363.92
  Q 438.64 364.21 439.09 364.34
  C 440.44 364.72 440.91 363.82 441.87 363.68
  Q 443.19 363.50 444.34 364.16
  Q 444.63 364.33 444.63 363.99
  L 444.63 363.57
  A 0.31 0.30 16.5 0 1 445.10 363.32
  L 446.28 364.06
  Q 446.37 364.12 446.38 364.00
  Q 446.38 363.87 446.38 363.74
  Q 446.38 363.56 446.53 363.49
  Q 446.77 363.37 447.01 363.36
  Q 447.32 363.35 447.59 363.22
  Q 451.35 361.46 454.52 358.83
  Q 454.90 358.52 455.39 358.41
  Q 457.20 358.04 458.87 357.09
  Q 459.28 356.86 459.73 356.97
  Q 460.33 357.10 460.99 356.75
  Q 461.31 356.58 461.94 355.78
  Q 462.72 354.80 464.06 354.41
  Q 464.43 354.31 464.25 353.97
  Q 464.19 353.86 464.13 353.75
  A 0.17 0.16 -20.1 0 1 464.24 353.52
  L 466.51 352.98
  Q 467.00 352.86 467.00 353.36
  L 467.01 354.26
  Z
  M 435.47 444.58
  Q 401.04 468.35 366.44 491.99
  C 359.46 496.76 352.62 503.14 344.81 505.67
  Q 343.89 505.97 340.58 506.26
  Q 337.89 506.50 335.59 508.20
  A 1.25 1.22 -59.6 0 1 334.70 508.44
  C 331.98 508.11 329.12 507.94 326.87 506.34
  Q 323.40 503.88 321.21 500.05
  Q 320.97 499.62 321.33 499.29
  Q 322.73 497.99 323.40 495.91
  Q 325.04 490.90 330.12 489.58
  A 1.57 1.56 13.1 0 0 330.95 489.07
  C 332.73 486.98 335.13 486.69 336.79 484.37
  Q 338.27 482.30 339.25 481.56
  Q 342.50 479.09 345.88 476.45
  A 0.52 0.52 0.0 0 0 345.42 475.54
  Q 343.26 476.13 342.05 478.05
  A 1.55 1.50 5.5 0 1 341.26 478.68
  C 338.38 479.70 336.09 482.04 334.11 483.30
  C 331.91 484.71 329.92 486.22 327.49 487.32
  C 323.11 489.28 318.84 492.06 314.71 493.72
  Q 282.73 506.59 248.57 511.18
  A 0.30 0.30 0.0 0 0 248.49 511.75
  Q 251.26 513.02 254.30 513.99
  Q 270.01 519.02 286.21 522.02
  C 290.65 522.84 295.71 522.54 300.51 523.19
  Q 306.06 523.95 308.56 523.75
  Q 312.64 523.44 316.58 522.32
  Q 318.88 521.66 321.02 521.90
  Q 329.19 522.80 337.40 523.07
  Q 339.21 523.13 342.06 522.81
  C 345.98 522.37 350.34 522.71 353.73 522.22
  Q 363.74 520.77 373.58 518.44
  Q 376.86 517.66 382.02 515.79
  C 387.78 513.71 394.85 512.22 399.63 509.88
  C 407.14 506.21 415.76 502.73 422.30 499.29
  C 435.39 492.40 448.48 484.30 459.20 474.01
  C 470.57 464.10 480.89 453.52 489.84 441.10
  Q 496.14 432.33 501.91 423.20
  Q 503.86 420.12 505.04 415.94
  A 1.73 1.73 0.0 0 0 503.64 413.75
  Q 500.41 413.26 496.68 414.66
  Q 494.74 415.39 492.75 415.92
  Q 490.85 416.44 488.95 417.36
  C 486.04 418.76 482.68 419.56 480.08 420.67
  Q 475.43 422.66 470.79 424.65
  Q 466.21 426.62 461.79 429.21
  Q 450.29 435.95 438.67 442.49
  Q 437.03 443.41 435.47 444.58
  Z"
/>
<path fill="#7a9cb3" d="
  M 464.96 355.50
  Q 464.80 357.34 465.68 358.49
  Q 465.37 360.16 465.74 361.89
  Q 464.91 363.01 465.01 364.26
  Q 465.47 370.38 464.90 376.33
  A 0.90 0.90 0.0 0 1 463.80 377.12
  C 459.42 376.10 457.89 378.58 454.75 379.57
  Q 451.28 380.67 447.63 380.84
  Q 446.26 380.90 444.97 381.38
  C 442.41 382.34 440.40 381.52 437.96 382.11
  Q 437.50 382.22 437.21 381.85
  Q 436.43 380.82 435.25 381.26
  L 435.05 374.24
  Q 449.21 363.84 464.96 355.50
  Z"
/>
<path fill="#fefefe" d="
  M 211.73 386.51
  Q 212.01 387.22 211.76 387.64
  Q 211.56 387.97 210.88 387.99
  C 203.18 388.18 195.06 388.86 187.70 388.12
  Q 151.60 384.46 120.54 368.12
  Q 116.91 366.21 115.64 365.90
  Q 114.18 363.61 111.57 361.83
  Q 111.35 360.81 109.52 359.03
  Q 108.58 358.12 109.72 358.76
  C 141.16 376.32 175.91 384.15 211.73 386.51
  Z"
/>
<path fill="#164068" d="
  M 111.57 361.83
  Q 114.18 363.61 115.64 365.90
  Q 132.52 393.98 161.03 410.74
  Q 142.90 405.89 126.85 396.66
  Q 126.41 396.41 126.19 395.95
  L 117.95 378.68
  Q 113.78 370.77 111.57 361.83
  Z"
/>
<path fill="#9fbbcd" d="
  M 465.74 361.89
  L 466.20 389.38
  Q 450.59 397.21 434.83 407.89
  L 435.25 381.26
  Q 436.43 380.82 437.21 381.85
  Q 437.50 382.22 437.96 382.11
  C 440.40 381.52 442.41 382.34 444.97 381.38
  Q 446.26 380.90 447.63 380.84
  Q 451.28 380.67 454.75 379.57
  C 457.89 378.58 459.42 376.10 463.80 377.12
  A 0.90 0.90 0.0 0 0 464.90 376.33
  Q 465.47 370.38 465.01 364.26
  Q 464.91 363.01 465.74 361.89
  Z"
/>
<path fill="#7a9cb3" d="
  M 304.70 363.03
  Q 304.92 372.29 304.82 381.49
  Q 304.78 385.68 301.80 388.33
  Q 301.44 388.66 301.42 389.15
  Q 301.26 392.69 298.94 396.75
  Q 283.85 410.22 263.19 416.68
  Q 263.25 415.59 262.92 415.41
  Q 264.34 415.46 265.02 414.51
  A 1.15 1.14 11.8 0 1 265.72 414.06
  Q 268.99 413.43 271.25 411.09
  Q 271.73 410.59 272.35 410.28
  Q 274.13 409.41 274.32 407.39
  A 1.45 1.42 -17.9 0 1 274.80 406.47
  Q 279.17 402.61 283.31 398.56
  Q 283.36 398.51 285.01 397.36
  C 285.99 396.68 286.19 395.37 286.96 394.49
  Q 288.97 392.18 291.19 390.09
  Q 291.57 389.73 292.10 389.70
  Q 295.69 389.51 297.09 385.34
  Q 298.22 382.00 301.40 378.80
  A 1.36 1.33 67.0 0 0 301.79 377.80
  Q 301.71 375.34 303.35 373.57
  A 1.25 1.24 -21.0 0 0 303.68 372.84
  L 304.70 363.03
  Z"
/>
<path fill="#9fbbcd" d="
  M 115.64 365.90
  Q 116.91 366.21 120.54 368.12
  Q 151.60 384.46 187.70 388.12
  C 195.06 388.86 203.18 388.18 210.88 387.99
  Q 211.56 387.97 211.76 387.64
  Q 212.01 387.22 211.73 386.51
  L 226.43 386.51
  Q 239.71 398.38 253.47 408.20
  L 262.92 415.41
  Q 263.25 415.59 263.19 416.68
  C 235.56 425.77 208.34 424.07 180.02 417.10
  Q 168.95 414.37 161.03 410.74
  Q 132.52 393.98 115.64 365.90
  Z"
/>
<path fill="#fefefe" d="
  M 550.06 368.39
  C 554.98 374.79 552.67 382.12 550.02 388.78
  Q 543.71 404.65 536.17 419.98
  C 526.14 440.35 513.71 459.28 498.39 476.05
  C 494.71 480.07 491.09 484.47 487.25 488.03
  Q 472.51 501.72 456.00 513.16
  Q 447.70 518.90 438.91 523.54
  Q 398.79 544.72 353.61 551.12
  Q 352.86 551.23 346.36 551.78
  C 343.08 552.05 339.86 552.95 336.70 552.97
  Q 321.52 553.06 306.35 552.97
  C 301.63 552.94 296.85 552.02 291.91 551.55
  Q 288.17 551.19 286.15 550.88
  Q 254.78 546.01 225.53 533.63
  Q 229.95 534.91 234.25 536.56
  C 283.18 555.32 336.02 557.04 386.17 543.05
  C 433.14 529.95 471.40 505.89 502.88 468.93
  Q 509.68 460.95 515.13 453.13
  Q 537.11 421.56 549.90 385.04
  C 551.89 379.34 552.66 374.25 550.06 368.39
  Z"
/>
<path fill="#365b7a" d="
  M 435.05 374.24
  L 435.25 381.26
  L 434.83 407.89
  L 406.97 426.71
  L 406.89 395.45
  Q 410.82 390.82 414.87 388.13
  Q 421.67 383.59 429.75 377.11
  Q 431.88 375.40 435.05 374.24
  Z"
/>
<path fill="#164068" d="
  M 406.89 395.45
  L 406.97 426.71
  L 382.79 444.62
  A 0.57 0.57 0.0 0 1 381.88 444.17
  C 381.85 441.34 382.23 439.12 383.96 436.68
  Q 392.26 425.03 399.63 412.76
  C 401.31 409.97 402.49 406.42 404.35 403.38
  Q 404.38 403.33 405.42 402.13
  Q 406.92 400.40 406.89 395.45
  Z"
/>
<path fill="#13365b" d="
  M 459.20 474.01
  Q 457.06 474.49 455.94 476.46
  Q 455.68 476.91 455.20 476.72
  Q 453.49 476.01 452.51 476.14
  Q 450.29 476.43 446.34 477.95
  Q 445.87 478.13 445.38 478.04
  Q 442.34 477.51 438.52 477.78
  C 435.78 477.96 434.96 476.01 435.21 473.54
  Q 435.82 467.48 435.42 461.46
  Q 435.03 455.61 435.10 453.03
  Q 435.22 448.77 435.47 444.58
  Q 437.03 443.41 438.67 442.49
  Q 450.29 435.95 461.79 429.21
  Q 466.21 426.62 470.79 424.65
  Q 475.43 422.66 480.08 420.67
  C 482.68 419.56 486.04 418.76 488.95 417.36
  Q 490.85 416.44 492.75 415.92
  Q 494.74 415.39 496.68 414.66
  Q 500.41 413.26 503.64 413.75
  A 1.73 1.73 0.0 0 1 505.04 415.94
  Q 503.86 420.12 501.91 423.20
  Q 496.14 432.33 489.84 441.10
  C 480.89 453.52 470.57 464.10 459.20 474.01
  Z"
/>
<path fill="#7a9cb3" d="
  M 359.11 422.76
  C 343.66 442.32 324.66 458.69 301.80 468.86
  Q 301.73 468.51 301.52 468.25
  Q 301.20 467.86 300.72 468.01
  Q 297.37 469.11 294.78 467.36
  Q 293.60 466.57 294.18 465.24
  Q 294.33 464.89 293.97 464.78
  Q 292.10 464.20 290.48 465.25
  Q 290.09 465.50 289.66 465.33
  Q 280.46 461.80 277.55 459.89
  Q 274.81 458.10 273.14 457.43
  A 2.33 2.29 -11.7 0 1 272.38 456.94
  Q 271.39 456.01 270.27 455.34
  Q 270.12 455.26 269.08 454.53
  Q 268.08 453.83 267.12 454.29
  Q 266.46 454.59 265.99 454.03
  L 265.41 453.33
  A 0.63 0.62 59.0 0 0 264.71 453.15
  Q 263.18 453.76 261.46 452.84
  Q 295.02 445.36 320.97 423.98
  L 322.42 424.20
  Q 323.00 424.28 322.56 424.67
  Q 322.20 425.00 321.75 425.06
  Q 321.25 425.14 321.61 425.49
  Q 321.72 425.60 321.86 425.69
  Q 321.99 425.76 322.17 425.74
  Q 324.69 425.49 327.20 425.18
  Q 328.90 424.96 331.22 425.51
  Q 333.68 426.10 336.19 425.86
  Q 341.24 425.39 341.37 425.39
  Q 344.35 425.32 347.32 425.03
  Q 347.54 425.01 347.60 425.17
  Q 347.61 425.21 347.62 425.26
  Q 347.62 425.28 347.73 425.26
  L 354.92 424.22
  Q 355.33 424.16 355.56 423.80
  Q 356.47 422.33 359.11 422.76
  Z"
/>
<path fill="#5f829f" d="
  M 153.49 440.89
  C 165.99 446.53 178.25 451.61 191.75 454.03
  Q 226.83 460.31 261.46 452.84
  Q 263.18 453.76 264.71 453.15
  A 0.63 0.62 59.0 0 1 265.41 453.33
  L 265.99 454.03
  Q 266.46 454.59 267.12 454.29
  Q 268.08 453.83 269.08 454.53
  Q 270.12 455.26 270.27 455.34
  Q 271.39 456.01 272.38 456.94
  A 2.33 2.29 -11.7 0 0 273.14 457.43
  Q 274.81 458.10 277.55 459.89
  Q 280.46 461.80 289.66 465.33
  Q 290.09 465.50 290.48 465.25
  Q 292.10 464.20 293.97 464.78
  Q 294.33 464.89 294.18 465.24
  Q 293.60 466.57 294.78 467.36
  Q 297.37 469.11 300.72 468.01
  Q 301.20 467.86 301.52 468.25
  Q 301.73 468.51 301.80 468.86
  Q 268.15 484.12 231.75 483.46
  Q 225.05 483.34 217.68 481.80
  Q 201.21 476.38 187.06 467.22
  Q 186.11 466.61 175.21 458.39
  Q 168.84 453.59 161.81 449.70
  Q 156.36 446.62 153.49 440.89
  Z"
/>
<path fill="#0b2544" d="
  M 435.47 444.58
  Q 435.22 448.77 435.10 453.03
  Q 435.03 455.61 435.42 461.46
  Q 435.82 467.48 435.21 473.54
  C 434.96 476.01 435.78 477.96 438.52 477.78
  Q 442.34 477.51 445.38 478.04
  Q 445.87 478.13 446.34 477.95
  Q 450.29 476.43 452.51 476.14
  Q 453.49 476.01 455.20 476.72
  Q 455.68 476.91 455.94 476.46
  Q 457.06 474.49 459.20 474.01
  C 448.48 484.30 435.39 492.40 422.30 499.29
  C 415.76 502.73 407.14 506.21 399.63 509.88
  C 394.85 512.22 387.78 513.71 382.02 515.79
  Q 376.86 517.66 373.58 518.44
  Q 363.74 520.77 353.73 522.22
  C 350.34 522.71 345.98 522.37 342.06 522.81
  Q 339.21 523.13 337.40 523.07
  Q 329.19 522.80 321.02 521.90
  Q 318.88 521.66 316.58 522.32
  Q 312.64 523.44 308.56 523.75
  Q 306.06 523.95 300.51 523.19
  C 295.71 522.54 290.65 522.84 286.21 522.02
  Q 270.01 519.02 254.30 513.99
  Q 251.26 513.02 248.49 511.75
  A 0.30 0.30 0.0 0 1 248.57 511.18
  Q 282.73 506.59 314.71 493.72
  C 318.84 492.06 323.11 489.28 327.49 487.32
  C 329.92 486.22 331.91 484.71 334.11 483.30
  C 336.09 482.04 338.38 479.70 341.26 478.68
  A 1.55 1.50 5.5 0 0 342.05 478.05
  Q 343.26 476.13 345.42 475.54
  A 0.52 0.52 0.0 0 1 345.88 476.45
  Q 342.50 479.09 339.25 481.56
  Q 338.27 482.30 336.79 484.37
  C 335.13 486.69 332.73 486.98 330.95 489.07
  A 1.57 1.56 13.1 0 1 330.12 489.58
  Q 325.04 490.90 323.40 495.91
  Q 322.73 497.99 321.33 499.29
  Q 320.97 499.62 321.21 500.05
  Q 323.40 503.88 326.87 506.34
  C 329.12 507.94 331.98 508.11 334.70 508.44
  A 1.25 1.22 -59.6 0 0 335.59 508.20
  Q 337.89 506.50 340.58 506.26
  Q 343.89 505.97 344.81 505.67
  C 352.62 503.14 359.46 496.76 366.44 491.99
  Q 401.04 468.35 435.47 444.58
  Z"
/>
<path fill="#13365b" d="
  M 161.81 449.70
  Q 168.84 453.59 175.21 458.39
  Q 186.11 466.61 187.06 467.22
  Q 201.21 476.38 217.68 481.80
  Q 205.90 481.38 192.01 476.86
  Q 187.00 475.23 184.41 473.34
  Q 171.10 463.61 161.81 449.70
  Z"
/>
<path fill="#13365b" d="
  M 194.73 517.82
  L 189.22 514.31
  Q 192.38 515.20 194.73 517.82
  Z"
/>
<path fill="#5f829f" d="
  M 204.23 523.38
  L 213.07 527.67
  Q 208.07 526.31 204.23 523.38
  Z"
/>
<path fill="#5f829f" d="
  M 213.76 528.29
  L 222.95 532.32
  L 213.76 528.29
  Z"
/>
<path fill="#0e1f28" fill-opacity="0.173" d="
  M 255.78 611.01
  Q 246.64 609.39 240.49 609.72
  Q 237.94 609.86 236.07 609.34
  Q 233.06 608.49 232.29 608.37
  Q 230.41 608.10 228.59 607.52
  Q 228.12 607.38 227.64 607.48
  Q 223.96 608.27 220.46 607.03
  Q 220.23 606.95 217.60 605.25
  Q 216.03 604.22 213.98 604.45
  A 0.98 0.98 0.0 0 1 213.23 604.20
  Q 213.00 604.01 212.76 603.99
  Q 206.59 603.56 200.57 601.91
  A 0.98 0.97 -48.5 0 1 200.46 600.07
  Q 204.16 598.55 208.12 598.73
  A 0.24 0.24 0.0 0 0 208.36 598.42
  L 208.26 598.08
  Q 208.18 597.83 208.44 597.81
  Q 218.62 597.06 228.75 596.12
  Q 251.52 593.99 274.38 593.17
  Q 286.78 592.73 294.36 592.46
  Q 326.48 591.29 358.61 592.66
  Q 358.68 592.66 367.37 593.36
  C 372.22 593.74 377.42 593.23 381.86 593.60
  Q 413.04 596.13 444.19 599.06
  Q 445.87 599.22 447.71 599.89
  C 451.18 601.16 454.94 600.68 458.59 600.82
  Q 462.32 600.97 465.79 601.94
  Q 471.84 603.63 477.58 606.20
  Q 479.32 606.97 480.44 607.27
  A 1.01 1.01 0.0 0 1 480.49 609.21
  Q 472.43 611.87 465.20 613.62
  C 462.42 614.29 459.27 614.16 456.24 614.81
  Q 450.59 616.04 444.85 616.31
  Q 439.32 616.58 435.19 617.14
  Q 430.43 617.80 424.50 618.23
  Q 415.28 618.91 399.50 621.21
  Q 394.34 621.97 376.18 621.68
  C 367.47 621.54 359.35 622.87 350.88 622.89
  C 327.56 622.95 304.16 623.88 280.66 621.56
  C 278.15 621.31 274.52 621.48 271.00 621.00
  C 267.52 620.52 262.68 620.97 258.35 620.48
  Q 252.26 619.79 246.11 619.81
  Q 244.65 619.81 242.50 619.20
  C 241.03 618.79 237.95 619.23 237.00 618.55
  A 0.22 0.22 0.0 0 1 237.13 618.16
  Q 245.94 617.99 254.71 618.42
  C 258.59 618.60 262.53 618.14 265.57 616.42
  Q 267.62 615.26 265.45 614.37
  Q 262.02 612.96 258.22 612.11
  Q 257.04 611.85 256.60 611.43
  Q 256.25 611.10 255.78 611.01
  Z"
/>
</svg>
